<svg width="238" height="301" viewBox="0 0 238 301" fill="none" xmlns="http://www.w3.org/2000/svg">
<g id="Group">
<g id="404">
<path d="M101.92 237.272V233.96L118.768 210.632H124V233.48H128.8V237.272H124V245H119.68V237.272H101.92ZM119.872 215.192L106.96 233.48H119.872V215.192ZM133.164 227.288C133.164 221.784 134.06 217.496 135.852 214.424C137.644 211.32 140.78 209.768 145.26 209.768C149.708 209.768 152.828 211.32 154.62 214.424C156.411 217.496 157.307 221.784 157.307 227.288C157.307 232.888 156.411 237.24 154.62 240.344C152.828 243.448 149.708 245 145.26 245C140.78 245 137.644 243.448 135.852 240.344C134.06 237.24 133.164 232.888 133.164 227.288ZM152.988 227.288C152.988 224.504 152.796 222.152 152.412 220.232C152.06 218.28 151.308 216.712 150.156 215.528C149.036 214.344 147.404 213.752 145.26 213.752C143.084 213.752 141.42 214.344 140.268 215.528C139.148 216.712 138.396 218.28 138.012 220.232C137.66 222.152 137.484 224.504 137.484 227.288C137.484 230.168 137.66 232.584 138.012 234.536C138.396 236.488 139.148 238.056 140.268 239.24C141.42 240.424 143.084 241.016 145.26 241.016C147.404 241.016 149.036 240.424 150.156 239.24C151.308 238.056 152.06 236.488 152.412 234.536C152.796 232.584 152.988 230.168 152.988 227.288ZM162.248 237.272V233.96L179.096 210.632H184.328V233.48H189.128V237.272H184.328V245H180.008V237.272H162.248ZM180.2 215.192L167.288 233.48H180.2V215.192Z" fill="#30282A"/>
<path d="M101.92 237.272H100.92V238.272H101.92V237.272ZM101.92 233.96L101.109 233.375L100.92 233.637V233.96H101.92ZM118.768 210.632V209.632H118.257L117.957 210.047L118.768 210.632ZM124 210.632H125V209.632H124V210.632ZM124 233.48H123V234.48H124V233.48ZM128.8 233.48H129.8V232.48H128.8V233.48ZM128.8 237.272V238.272H129.8V237.272H128.8ZM124 237.272V236.272H123V237.272H124ZM124 245V246H125V245H124ZM119.68 245H118.68V246H119.68V245ZM119.68 237.272H120.68V236.272H119.68V237.272ZM119.872 215.192H120.872V212.042L119.055 214.615L119.872 215.192ZM106.96 233.48L106.143 232.903L105.03 234.48H106.96V233.48ZM119.872 233.48V234.48H120.872V233.48H119.872ZM102.92 237.272V233.96H100.92V237.272H102.92ZM102.731 234.545L119.579 211.217L117.957 210.047L101.109 233.375L102.731 234.545ZM118.768 211.632H124V209.632H118.768V211.632ZM123 210.632V233.48H125V210.632H123ZM124 234.48H128.8V232.48H124V234.48ZM127.8 233.48V237.272H129.8V233.48H127.8ZM128.8 236.272H124V238.272H128.8V236.272ZM123 237.272V245H125V237.272H123ZM124 244H119.68V246H124V244ZM120.68 245V237.272H118.68V245H120.68ZM119.68 236.272H101.92V238.272H119.68V236.272ZM119.055 214.615L106.143 232.903L107.777 234.057L120.689 215.769L119.055 214.615ZM106.96 234.48H119.872V232.48H106.96V234.48ZM120.872 233.48V215.192H118.872V233.48H120.872ZM135.852 214.424L136.715 214.928L136.718 214.924L135.852 214.424ZM154.62 214.424L153.753 214.924L153.756 214.928L154.62 214.424ZM135.852 240.344L136.718 239.844L136.718 239.844L135.852 240.344ZM152.412 220.232L151.427 220.409L151.429 220.419L151.431 220.428L152.412 220.232ZM150.156 215.528L149.429 216.215L149.439 216.225L150.156 215.528ZM140.268 215.528L139.551 214.831L139.541 214.841L140.268 215.528ZM138.012 220.232L137.03 220.039L137.028 220.052L138.012 220.232ZM138.012 234.536L137.027 234.713L137.029 234.721L137.03 234.729L138.012 234.536ZM140.268 239.24L139.541 239.927L139.551 239.937L140.268 239.24ZM150.156 239.24L149.439 238.543L149.429 238.553L150.156 239.24ZM152.412 234.536L151.43 234.343L151.429 234.351L151.427 234.359L152.412 234.536ZM134.164 227.288C134.164 221.872 135.049 217.785 136.715 214.928L134.988 213.92C133.07 217.207 132.164 221.696 132.164 227.288H134.164ZM136.718 214.924C138.284 212.21 141.033 210.768 145.26 210.768V208.768C140.526 208.768 137.003 210.43 134.985 213.924L136.718 214.924ZM145.26 210.768C149.451 210.768 152.185 212.208 153.753 214.924L155.486 213.924C153.47 210.432 149.964 208.768 145.26 208.768V210.768ZM153.756 214.928C155.422 217.785 156.307 221.872 156.307 227.288H158.307C158.307 221.696 157.401 217.207 155.483 213.92L153.756 214.928ZM156.307 227.288C156.307 232.802 155.422 236.955 153.753 239.844L155.486 240.844C157.401 237.525 158.307 232.974 158.307 227.288H156.307ZM153.753 239.844C152.185 242.56 149.451 244 145.26 244V246C149.964 246 153.47 244.336 155.486 240.844L153.753 239.844ZM145.26 244C141.033 244 138.284 242.558 136.718 239.844L134.985 240.844C137.003 244.338 140.526 246 145.26 246V244ZM136.718 239.844C135.049 236.955 134.164 232.802 134.164 227.288H132.164C132.164 232.974 133.07 237.525 134.985 240.844L136.718 239.844ZM153.988 227.288C153.988 224.463 153.793 222.041 153.392 220.036L151.431 220.428C151.798 222.263 151.988 224.545 151.988 227.288H153.988ZM153.396 220.055C153.015 217.946 152.189 216.184 150.872 214.831L149.439 216.225C150.426 217.24 151.104 218.614 151.427 220.409L153.396 220.055ZM150.882 214.841C149.519 213.4 147.588 212.752 145.26 212.752V214.752C147.219 214.752 148.552 215.288 149.429 216.215L150.882 214.841ZM145.26 212.752C142.903 212.752 140.945 213.397 139.551 214.831L140.984 216.225C141.894 215.291 143.264 214.752 145.26 214.752V212.752ZM139.541 214.841C138.265 216.19 137.443 217.943 137.03 220.039L138.993 220.425C139.348 218.617 140.03 217.234 140.994 216.215L139.541 214.841ZM137.028 220.052C136.661 222.05 136.484 224.467 136.484 227.288H138.484C138.484 224.541 138.658 222.254 138.995 220.412L137.028 220.052ZM136.484 227.288C136.484 230.203 136.661 232.683 137.027 234.713L138.996 234.359C138.658 232.485 138.484 230.133 138.484 227.288H136.484ZM137.03 234.729C137.443 236.825 138.265 238.578 139.541 239.927L140.994 238.553C140.03 237.534 139.348 236.151 138.993 234.343L137.03 234.729ZM139.551 239.937C140.945 241.371 142.903 242.016 145.26 242.016V240.016C143.264 240.016 141.894 239.477 140.984 238.543L139.551 239.937ZM145.26 242.016C147.588 242.016 149.519 241.368 150.882 239.927L149.429 238.553C148.552 239.48 147.219 240.016 145.26 240.016V242.016ZM150.872 239.937C152.189 238.584 153.015 236.822 153.396 234.713L151.427 234.359C151.104 236.154 150.426 237.528 149.439 238.543L150.872 239.937ZM153.393 234.729C153.793 232.692 153.988 230.207 153.988 227.288H151.988C151.988 230.129 151.798 232.476 151.43 234.343L153.393 234.729ZM162.248 237.272H161.248V238.272H162.248V237.272ZM162.248 233.96L161.437 233.375L161.248 233.637V233.96H162.248ZM179.096 210.632V209.632H178.585L178.285 210.047L179.096 210.632ZM184.328 210.632H185.328V209.632H184.328V210.632ZM184.328 233.48H183.328V234.48H184.328V233.48ZM189.128 233.48H190.128V232.48H189.128V233.48ZM189.128 237.272V238.272H190.128V237.272H189.128ZM184.328 237.272V236.272H183.328V237.272H184.328ZM184.328 245V246H185.328V245H184.328ZM180.008 245H179.008V246H180.008V245ZM180.008 237.272H181.008V236.272H180.008V237.272ZM180.2 215.192H181.2V212.042L179.383 214.615L180.2 215.192ZM167.288 233.48L166.471 232.903L165.358 234.48H167.288V233.48ZM180.2 233.48V234.48H181.2V233.48H180.2ZM163.248 237.272V233.96H161.248V237.272H163.248ZM163.059 234.545L179.907 211.217L178.285 210.047L161.437 233.375L163.059 234.545ZM179.096 211.632H184.328V209.632H179.096V211.632ZM183.328 210.632V233.48H185.328V210.632H183.328ZM184.328 234.48H189.128V232.48H184.328V234.48ZM188.128 233.48V237.272H190.128V233.48H188.128ZM189.128 236.272H184.328V238.272H189.128V236.272ZM183.328 237.272V245H185.328V237.272H183.328ZM184.328 244H180.008V246H184.328V244ZM181.008 245V237.272H179.008V245H181.008ZM180.008 236.272H162.248V238.272H180.008V236.272ZM179.383 214.615L166.471 232.903L168.105 234.057L181.017 215.769L179.383 214.615ZM167.288 234.48H180.2V232.48H167.288V234.48ZM181.2 233.48V215.192H179.2V233.48H181.2Z" fill="#30282A"/>
</g>
<path id="Vector" d="M139.726 0.615811C134.285 1.28179 129.61 2.43888 123.404 4.5451C115.711 7.15604 108.963 10.6721 104.597 13.4027C103.925 13.8689 104.059 14.4682 105.134 16.1332C105.873 17.3986 106.477 18.8637 106.477 19.4631C106.477 21.5943 104.731 20.3955 103.119 17.1322C99.7606 10.2726 91.4316 5.21108 83.64 5.21108C75.8484 5.21108 67.9225 10.0728 64.0938 17.1988C62.6833 19.7961 61.0712 21.0615 61.0712 27.1885C61.0712 34.8473 63.355 37.1783 67.721 41.4405L69.6689 43.3053L70.8779 41.4405C71.5496 40.375 72.8258 38.71 73.699 37.6444C74.505 36.6455 75.9828 34.9139 76.9231 33.8483C78.6695 31.7172 80.2816 31.251 80.2816 32.8494C80.2816 33.8483 75.7736 37.9958 73.4975 41.7069C72.7469 42.9308 71.6839 44.9037 71.6839 44.9037C71.6839 44.9037 63.8252 57.2909 62.0116 62.4856C60.0637 68.0799 59.7279 75.0061 61.0712 79.2684C62.2131 82.6649 65.3029 89.3913 66.3776 90.7899C66.6463 91.1229 68.2583 93.1874 69.8704 95.3851C71.5496 97.5163 74.8693 101.317 75.2439 101.645C75.6185 101.973 80.1472 106.241 80.1472 106.241C80.1472 106.241 86.0581 111.302 89.6852 113.966C92.4392 116.031 104.53 123.09 106.142 123.689C106.477 123.756 108.022 124.422 109.5 125.088C114.336 127.219 126.494 131.082 128.24 131.082C129.046 131.082 129.315 130.416 129.315 128.418C129.315 126.287 129.046 125.754 128.106 125.754C126.695 125.754 120.113 123.556 119.374 122.824C119.105 122.557 118.031 121.958 116.889 121.492C113.127 119.893 107.552 114.232 106.343 110.636C104.53 105.508 106.41 100.646 111.582 97.2499C114.538 95.3851 123.27 92.6546 123.27 92.6546C123.27 92.6546 125.674 91.9256 127.233 91.5224C142.766 87.5043 152.846 87.3571 168.34 91.5224C170.006 91.9703 170.945 92.2168 172.572 92.7878C180.037 95.4074 188.155 99.1812 189.767 103.444C191.581 108.172 189.566 114.099 184.864 118.162C180.699 121.625 176.199 123.689 167.265 126.087C166.862 126.154 166.594 127.419 166.594 128.817V131.415L169.281 131.215C170.758 131.082 172.639 130.349 172.639 130.349L174.453 129.75C174.453 129.75 195.073 122.624 200.85 118.695C202.193 117.829 203.604 117.096 203.604 117.096C203.604 117.096 208.709 113.766 215.291 108.505C222.881 102.445 234.099 85.795 234.099 85.795C234.099 85.795 235.362 83.6161 235.979 82.1321C238.929 75.0389 238.406 69.7711 235.979 62.4856C235.129 59.9328 234.099 58.4231 233.091 56.2254C230.942 51.3637 226.576 44.7705 221.336 38.2438C217.508 33.5154 216.836 31.8504 218.918 31.8504C219.926 31.8504 222.21 34.3145 226.173 39.709L229.061 43.6383L231.345 40.708C235.778 34.9805 237.188 26.8555 234.905 20.3955C232.218 13.0697 227.064 7.94647 218.851 6.21006C215.516 5.50493 213.468 5.50705 210.119 6.14346C207.053 6.7262 202.546 9.85633 200.867 10.7887C197.911 12.5203 194.469 18.1978 194.469 18.1978C194.469 18.1978 192.521 20.8617 191.782 20.1291C191.379 19.7295 191.581 18.5307 192.454 16.8658C193.327 15.1342 193.529 14.0687 193.126 13.5359C192.185 12.4037 177.762 4.67575 166.862 2.14757C156.527 -0.249677 148.324 -0.449761 139.726 0.615811ZM90.5584 9.80637C93.6482 11.1383 95.1931 12.5369 93.5139 12.5369C92.9765 12.5369 90.8271 11.9375 88.6105 11.1383C85.9909 10.2726 83.7744 9.87296 81.9608 10.1394C74.1692 11.1383 66.8478 18.6639 66.8478 25.6568C66.8478 26.5225 66.5119 27.1885 66.1089 27.1885C65.1686 27.1885 66.7134 19.9293 66.7134 19.9293L67.7881 17.998C67.7881 17.998 73.2288 11.4713 75.8484 10.5389C76.9903 10.1394 78.4008 9.47337 78.9382 9.20698C80.8189 8.14141 87.4687 8.47441 90.5584 9.80637ZM219.506 10.2892C221.521 10.822 225.657 12.5931 227.046 14.1353C226.246 13.4303 227.895 14.7815 227.046 14.1353C230.256 16.9639 231.608 19.736 231.748 23.9918C231.772 24.7201 231.748 25.7733 231.748 25.7733C231.748 25.7733 231.278 24.7244 230.337 22.0605C229.397 19.3965 229.9 20.3793 229.397 19.3965C228.545 17.7338 227.695 16.9921 226.307 15.7336C220.706 10.655 213.545 9.27359 207.164 12.4037C205.149 13.4027 204.544 13.4693 204.276 12.8033C203.873 11.7377 205.703 11.2382 209.935 10.0395C213.427 9.04049 214.267 8.82405 219.506 10.2892ZM108.224 46.7684C109.5 48.1004 111.381 50.8975 112.388 53.0286C114.135 56.625 114.202 57.3575 114.202 66.4815C114.202 74.3401 114 76.5378 113.06 78.4026C112.388 79.668 111.851 80.9999 111.851 81.3329C111.851 82.6649 107.149 87.6597 104.731 88.7919C102.447 89.8575 102.112 89.8575 99.2904 88.7919C95.8648 87.46 94.1856 85.8616 92.2377 82.1321C90.3569 78.6024 88.3419 70.4108 88.3419 66.5481C88.3419 62.8852 91.7675 51.8299 91.7675 51.8299L92.372 50.7643C92.372 50.7643 96.738 44.9703 98.4172 44.3043C98.9546 44.0379 100.902 43.9713 102.649 44.1045C105.336 44.3043 106.276 44.7039 108.224 46.7684ZM199.977 44.5707C207.701 48.6998 211.597 64.7499 207.836 76.8708C207.029 79.4016 206.602 80.4133 205.485 82.5317C205.136 83.192 204.964 83.5784 204.544 84.1966C203.383 85.9064 200.934 87.5599 200.648 87.7929C200.363 88.026 200.109 88.3245 199.708 88.5921C198.52 89.3842 196.148 89.4579 196.148 89.4579C196.148 89.4579 193.864 89.3043 192.655 88.5921C192.204 88.3264 191.581 87.7929 191.581 87.7929C191.581 87.7929 184.998 81.5327 184.125 76.5378C183.252 71.543 183.386 66.4815 183.386 66.4815C183.386 66.4815 182.687 60.1623 183.89 56.4085C185.963 49.9347 191.043 43.9047 196.014 43.8381C197.424 43.8381 199.238 44.1711 199.977 44.5707Z" fill="#30282A"/>
<path id="Vector_2" d="M96.505 48.5681C94.6592 49.9424 93.4117 53.5672 93.3069 53.9647C93.2021 54.3621 90.8537 59.5893 90.5941 63.4195C90.0076 72.0723 94.2212 83.6654 99.7963 83.6654C102.147 83.6654 104.674 81.0491 106.446 78.2043C107.298 76.8357 108.058 74.4082 108.058 74.4082C108.058 74.4082 108.797 69.8129 108.797 66.0834C108.797 57.3591 107.252 52.4974 103.491 49.3007C100.401 46.7033 98.3508 47.1938 96.505 48.5681ZM99.5614 52.1977C100.067 52.6239 101.272 54.2879 101.42 55.3055C101.686 57.1441 98.5872 57.692 97.6468 57.692C93.348 57.692 95.005 50.5341 97.5797 51.0322C98.4628 51.2031 99.0553 51.7715 99.5614 52.1977Z" fill="#30282A"/>
<path id="Vector_3" d="M192.499 48.1648C187.125 51.6279 184.237 62.4834 186.319 71.4741C188.133 79.3327 191.155 83.4618 195.051 83.4618C198.746 83.4618 201.634 79.7989 203.515 72.6063C205.127 66.5459 205.127 64.9475 203.38 58.2211C201.97 52.427 198.326 47.8151 197.57 47.5654C196.815 47.3156 194.85 46.633 192.499 48.1648ZM200.223 52.4936C202.306 55.6238 198.074 58.8871 195.454 56.2897C193.977 54.8246 194.178 53.1596 195.924 51.6945C197.066 50.8287 199.417 51.2283 200.223 52.4936Z" fill="#30282A"/>
<path id="Vector_4" d="M135.224 87.377C135.023 87.5102 131.866 88.1096 128.172 88.6424C112.857 90.7069 104.931 96.5676 107.081 104.16C108.424 109.088 114.066 113.683 123.201 117.213C126.089 118.345 128.306 118.678 133.277 118.678C138.986 118.678 139.993 118.478 143.016 116.813L146.442 114.949L149.733 116.813C152.756 118.478 153.696 118.678 159.472 118.678C166.727 118.678 171.496 117.413 177.742 113.817C187.549 108.222 189.699 99.2981 182.31 94.5696C181.034 93.7038 179.153 92.3719 179.153 92.3719L177.474 91.7059L174.787 90.7735C174.787 90.7735 156.047 87.044 145.501 87.044C139.993 87.044 135.359 87.1772 135.224 87.377ZM153.36 89.8411C158.868 91.5727 160.547 96.0348 156.987 99.3647C154.838 101.296 152.017 102.029 146.71 102.029C139.12 102.029 134.62 99.6977 134.62 95.7018C134.62 93.171 136.299 91.7059 136.299 91.7059C136.299 91.7059 136.981 91.1985 137.441 90.9067C141.324 88.4423 146.24 88.5092 149.061 88.8422C150.203 88.9754 152.084 89.4415 153.36 89.8411Z" fill="#30282A"/>
<path id="Vector_5" d="M26.8139 93.7697C22.3808 94.5688 14.4549 98.5647 11.3651 101.628C7.26777 105.558 4.3795 110.419 1.5584 118.344C0.080684 122.407 -0.0536541 123.672 0.0135149 137.325C0.0135149 150.245 0.147853 152.643 1.49123 157.704C2.29726 160.901 2.96895 163.964 2.96895 164.564C2.96895 165.163 3.23763 166.162 3.57347 166.828C3.90932 167.427 4.98402 170.491 5.99156 173.621C6.93192 176.751 8.34247 180.747 9.08133 182.612C9.88736 184.41 10.8277 186.807 11.2307 187.94C12.1711 190.271 20.2986 206.254 22.2465 209.651C23.0525 210.983 24.06 212.781 24.5974 213.647C25.0676 214.512 25.6049 215.378 25.8064 215.578C26.0079 215.778 27.5528 217.975 29.232 220.573C35.4116 229.963 44.4794 243.283 45.4869 244.548C45.9571 245.148 47.0318 246.613 52.5397 254.072C53.1442 254.938 54.3532 256.469 55.2264 257.402C56.0325 258.401 56.9728 259.466 57.2415 259.866C60.5328 264.394 67.9214 272.12 72.7576 276.116L75.8473 278.713L78.1982 277.448C79.4745 276.715 81.2208 276.182 82.094 276.182C83.6389 276.182 83.5718 276.182 81.7582 274.384C79.5416 272.186 75.8473 266.725 72.8919 261.264C71.2127 258.068 70.8096 257.668 70.8096 259.133C70.8096 260.066 70.4738 260.865 70.0708 260.865C69.6006 260.865 69.4663 259.932 69.6678 258.401C70.0036 255.803 69.0633 250.475 68.0557 249.143C67.7199 248.744 67.2497 246.946 66.981 245.214C66.7123 242.883 66.2422 241.951 65.3018 241.684C63.8241 241.351 63.6897 240.219 65.1003 240.219C66.175 240.219 66.5108 237.888 65.5033 237.289C65.1675 237.089 64.6973 234.492 64.4286 231.562C63.6897 223.57 62.7494 223.636 61.003 231.695C60.4656 234.359 59.6596 238.155 59.2566 240.019C58.8536 241.951 58.249 243.549 57.9132 243.549C57.2415 243.549 57.1743 239.287 57.846 238.621C58.1147 238.421 58.3834 237.689 58.4506 237.023C58.5177 236.423 58.9207 233.693 59.3238 231.029C59.7268 228.298 59.9283 225.901 59.7268 225.568C59.5253 225.235 58.249 224.835 56.8385 224.569C55.4951 224.369 53.6144 223.703 52.674 223.17C51.3978 222.438 51.3306 222.238 52.3382 222.504C53.077 222.704 55.3608 222.904 57.3759 223.037L61.003 223.237L61.8762 217.309C62.3464 214.046 62.6822 211.249 62.5479 211.116C62.4135 211.049 60.197 210.516 57.6445 209.984C55.0921 209.517 52.5397 208.918 52.0023 208.652C50.9276 208.186 49.7858 211.116 48.9126 216.577C48.711 218.042 48.1737 220.306 47.7035 221.572C47.1662 222.837 46.6288 225.301 46.3601 227.033C46.0915 228.764 45.6213 230.363 45.2183 230.563C44.4794 231.095 44.4794 228.764 45.3526 224.902C46.1586 221.039 47.9722 210.25 47.9722 208.918C47.9722 208.252 46.5616 207.453 43.8749 206.654C40.8523 205.788 39.9791 205.255 40.5164 204.722C41.0538 204.19 41.4568 204.19 42.0613 204.789C42.5315 205.255 44.2779 205.588 45.9571 205.588H49.1141L49.8529 200.727C50.2559 198.129 50.7261 195.332 50.7933 194.666C50.9948 193.267 50.3231 193.001 42.733 191.469C39.5761 190.803 39.1059 190.803 38.2327 192.002C37.6953 192.668 37.2251 193.933 37.2251 194.733C37.2251 196.797 36.4863 198.329 35.7474 197.863C35.4116 197.596 35.4116 197.197 35.7474 196.731C36.1504 196.264 36.4863 194.666 36.6878 193.134C36.8893 190.737 36.6878 190.271 35.3444 189.671C34.4712 189.272 33.2622 188.939 32.5905 188.939C31.986 188.939 30.8441 188.472 30.1052 187.873C28.8962 186.941 29.0305 186.874 31.5158 187.274C32.9935 187.54 34.8742 187.873 35.6803 188.073C36.9565 188.339 37.158 188.073 37.561 185.143C37.7625 183.411 38.2327 181.28 38.6357 180.414C39.4417 178.483 39.4417 175.819 38.6357 175.353C38.2999 175.086 35.9489 174.553 33.3965 174.021C30.9113 173.554 28.426 173.022 27.8887 172.888C27.217 172.689 26.5453 174.354 25.4034 178.616C22.9181 188.339 22.3808 189.338 22.851 183.944C23.0525 181.413 23.5227 178.616 23.8585 177.75C24.1944 176.884 24.463 175.153 24.463 173.887C24.463 172.089 24.1944 171.623 23.1868 171.623C22.5151 171.623 21.0374 171.157 20.0299 170.557C18.082 169.559 18.1491 169.559 21.5076 169.958L25.0004 170.424L25.4706 166.828C25.7392 164.897 26.2766 162.965 26.6124 162.499C26.9483 162.099 27.1498 160.768 27.0155 159.569C26.8139 157.504 26.6124 157.371 22.7838 156.505C14.6564 154.64 15.2609 154.64 14.7235 156.905C14.119 159.769 12.8428 159.569 13.1786 156.638C13.3801 154.84 13.1786 154.307 12.3726 154.307C11.8353 154.307 10.7606 153.775 10.0217 153.242C8.74549 152.243 8.81265 152.243 11.2307 152.643C13.4473 153.109 13.716 152.976 13.716 151.644C13.716 150.844 13.9847 149.712 14.3205 149.113C14.5892 148.513 15.0594 146.116 15.2609 143.918C15.6639 139.922 15.6639 139.789 13.8503 139.123C12.8428 138.724 11.0292 138.191 9.82019 137.991C8.67832 137.725 7.67078 137.258 7.67078 136.925C7.67078 136.126 8.54398 136.126 9.35001 136.925C9.75302 137.258 11.3651 137.658 13.0443 137.791L16.0669 137.991L16.8058 134.994C17.2088 133.329 17.7461 130.465 18.0148 128.601C18.4178 125.47 18.2835 125.137 16.8058 124.471C15.9326 124.138 13.7832 123.539 11.9696 123.273C10.156 123.006 8.2753 122.407 7.73795 121.874C6.93192 121.008 7.13343 120.942 9.41718 121.341C10.8277 121.541 13.4473 122.074 15.1937 122.407C16.9401 122.807 18.6193 122.94 18.9552 122.74C19.291 122.54 19.9627 120.143 20.3657 117.345C20.8359 114.615 21.5076 112.217 21.8434 112.018C22.7838 111.418 22.5823 110.353 21.4404 110.353C20.9031 110.353 19.8955 110.086 19.2239 109.753C18.6193 109.354 16.9401 108.887 15.5967 108.688C14.1862 108.488 13.0443 107.955 13.0443 107.556C13.0443 106.956 17.4775 107.089 22.1121 107.888C22.448 107.955 22.851 107.223 22.9853 106.157C23.3212 103.626 24.463 103.893 24.463 106.557V108.754L29.7022 109.553C32.5233 109.953 35.4788 110.353 36.2176 110.486C37.0908 110.619 37.561 110.219 37.7625 109.354C37.8968 108.621 38.2327 107.422 38.5685 106.69C38.9044 105.957 39.3074 104.758 39.5089 104.026C39.7104 103.293 39.7104 104.692 39.5761 107.089L39.3074 111.551L42.4643 112.018C44.2107 112.284 46.0915 112.684 46.6288 113.017C47.1662 113.283 48.7782 113.683 50.1888 113.949C52.3382 114.349 52.674 114.215 52.674 113.15C52.674 112.417 53.1442 110.952 53.6816 109.953C54.6891 108.088 54.6891 108.088 54.2861 111.485C53.8831 114.748 53.9502 115.015 55.2264 115.015C56.0325 115.015 56.8385 115.281 57.04 115.68C57.2415 116.013 58.1819 116.346 59.1222 116.346C60.0626 116.346 60.6 116.613 60.3985 117.012C59.8611 117.878 56.3011 117.878 54.6219 117.012C53.48 116.413 53.3457 116.546 53.3457 118.211C53.3457 119.277 53.077 121.008 52.7412 122.074C52.4053 123.14 51.9352 125.137 51.8008 126.469C51.3978 129.067 51.2635 128.934 56.0325 129.999C64.2271 131.864 64.5629 131.864 65.1003 130.199C66.3765 126.469 66.7123 126.07 66.3765 128.8C66.0407 131.131 66.2422 131.664 67.384 132.33C69.2648 133.262 69.8693 132.863 70.8096 129.799C71.75 126.936 74.7055 119.277 75.5115 117.745C79.0043 111.085 79.4073 109.021 77.325 109.021C76.7877 109.021 75.8473 108.421 75.1756 107.689C74.5039 106.956 73.6307 106.357 73.2949 106.357C72.8919 106.357 72.0859 105.957 71.5485 105.424C70.0708 104.159 58.7192 98.3649 57.6445 98.3649C57.1743 98.3649 56.7042 98.0986 56.5698 97.8322C56.3683 97.366 52.1367 95.9674 45.9571 94.369C42.33 93.4367 30.5754 93.0371 26.8139 93.7697Z" fill="#30282A"/>
<path id="Vector_6" d="M82.6975 110.155C76.3836 121.943 74.3013 127.27 69.7338 143.321C68.1889 148.915 66.7112 158.239 66.0395 167.629C65.2335 177.952 65.7709 220.242 66.7784 226.901C67.1814 229.299 67.7859 233.495 68.1889 236.225C69.4652 245.349 72.4878 254.34 76.9881 262.598C80.548 269.125 85.5186 274.852 87.6008 274.852C89.7502 274.852 97.206 276.917 100.229 278.315C104.124 280.113 107.227 284.134 112.185 287.173C114.213 288.416 115.338 289.154 117.491 290.17C127.945 295.103 135.306 296.646 147.396 296.646C159.621 296.579 174.518 291.235 175.928 290.17C176.331 289.903 181.691 287.726 183.908 287.26C187.871 286.461 187.964 285.919 187.964 285.919C187.964 285.919 200.109 276.917 203.333 276.184C205.482 275.718 207.027 274.652 209.647 271.855C211.595 269.857 213.207 267.726 213.207 267.726L214.147 266.261C214.147 266.261 219.789 256.471 220.663 253.474C221.133 251.876 221.737 250.211 222.006 249.878C222.275 249.478 222.812 247.281 223.215 244.883C223.685 242.485 224.29 239.955 224.626 239.222C225.23 237.824 226.372 228.3 227.312 215.913C228.118 206.323 228.051 172.024 227.312 165.631C225.364 149.448 221.267 132.931 216.498 122.342C211.057 110.155 212.86 106.504 208.236 110.022C207.78 110.369 207.602 110.653 207.162 111.02C205.767 112.183 203.132 113.351 203.132 113.351C203.132 113.351 200.709 114.76 199.169 115.682C198.564 116.045 198.231 116.258 197.624 116.615C195.725 117.729 194.87 118.346 192.653 119.279C190.504 120.278 188.22 121.343 187.615 121.676C186.608 122.209 180.361 124.273 172.905 126.604C171.226 127.137 168.607 127.737 167.129 128.003C164.711 128.336 164.241 128.736 163.972 130.334C163.3 133.397 159.942 134.996 153.897 134.996C151.076 134.996 148.389 134.33 148.389 134.33C148.389 134.33 146.877 134.163 146.458 134.163C146.038 134.163 144.359 134.33 144.359 134.33C144.359 134.33 141.873 134.996 139.321 134.996C134.418 134.996 129.917 131.866 129.917 131.866L129.246 131C129.246 131 128.574 130.401 128.574 129.668C128.574 128.935 128.171 128.203 127.768 128.07C127.298 127.936 124.477 127.137 121.521 126.338C116.215 124.939 112.722 123.741 108.759 122.009C107.684 121.543 104.863 120.278 102.579 119.279C100.229 118.28 98.3478 116.948 98.3478 116.948L97.4075 116.348C97.4075 116.348 93.7132 114.55 90.4219 112.352C87.0634 110.155 84.1752 108.357 84.0408 108.357C83.8393 108.357 83.2348 109.156 82.6975 110.155ZM156.248 146.784C157.446 147.144 159.27 147.849 159.27 147.849C159.27 147.849 174.383 154.642 180.16 160.237C182.04 162.101 183.652 164.299 183.652 164.299C183.652 164.299 186.138 163.367 197.019 155.508C201.654 152.178 203.535 151.113 204.072 151.712C204.945 152.578 204.609 152.911 191.041 162.568C174.786 174.222 170.084 177.819 168.942 179.617C168.405 180.549 167.599 181.481 167.263 181.748C166.86 182.014 166.524 184.545 166.524 187.409C166.524 191.937 166.793 192.936 168.338 195.334C170.823 199.13 173.711 201.328 177.943 202.66C181.436 203.792 181.705 203.792 186.003 202.327C188.489 201.527 191.108 200.196 191.78 199.396C193.19 197.798 202.728 185.544 204.609 182.88C205.281 182.014 207.027 179.617 208.505 177.619C210.05 175.621 211.796 173.223 212.401 172.357C213.005 171.492 213.879 170.493 214.282 170.027C214.685 169.627 215.491 168.495 216.162 167.429C217.371 165.631 219.252 164.965 219.252 166.364C219.252 167.096 216.364 171.492 213.946 174.289C213.207 175.221 212.334 176.22 212.065 176.62C210.722 178.285 200.646 192.004 200.243 192.737C199.975 193.136 200.243 196.932 200.848 201.061C202.393 211.85 202.728 218.577 201.855 223.572C201.452 225.969 200.848 230.298 200.445 233.162C200.042 236.092 199.504 238.756 199.169 239.156C198.833 239.555 198.363 240.82 198.161 241.953C197.892 243.085 196.952 245.749 196.012 247.946C195.138 250.078 193.862 253.008 193.325 254.34C192.72 255.738 192.385 256.787 192.049 256.787C191.713 256.787 190.538 259.285 190.286 259.784C190.034 260.284 190.369 259.535 189.563 260.667C188.69 261.799 187.548 263.397 187.011 264.263C185.399 266.727 175.861 276.184 174.988 276.184C174.669 276.517 174.669 276.517 174.417 276.767C173.895 277.285 173.241 278.116 166.457 281.445C163.905 282.644 161.352 283.91 160.681 284.243C158.061 285.508 150.202 286.307 143.082 285.974C134.888 285.641 129.313 283.976 121.521 279.581C113.192 274.852 101.572 261.066 97.4075 250.877C96.3999 248.479 95.3252 245.949 94.9222 245.216C92.2355 239.688 89.2128 221.374 89.8174 213.915C90.2204 208.654 91.4294 199.53 92.0339 196.799C92.437 194.734 91.7653 193.203 88.2053 188.607C86.7276 186.743 85.3842 184.945 85.1155 184.612C84.7797 184.212 84.0408 183.213 83.4363 182.281C82.8318 181.348 81.2869 179.217 80.0779 177.552C73.8983 169.028 72.1519 166.23 72.4878 165.564C72.7564 165.231 73.2266 164.965 73.4953 165.098C73.8311 165.231 78.4658 171.292 83.7722 178.618C89.1457 185.943 93.7803 192.204 94.1162 192.603C94.3849 192.936 95.5267 194.535 96.6014 196.133C98.6837 199.13 102.244 201.527 106.677 202.926C108.893 203.659 109.901 203.592 113.259 202.526C118.834 200.862 122.596 197.132 124.141 191.671C125.215 187.808 125.215 187.542 123.872 183.679C123.133 181.415 121.924 179.017 121.185 178.285C120.043 177.153 114.334 172.824 98.2135 160.836C97.5418 160.37 94.7879 158.305 92.0339 156.307C87.1978 152.778 86.1902 151.512 87.5336 150.646C87.8695 150.447 92.5713 153.577 97.9448 157.573L107.684 164.832L109.968 162.368C116.752 155.175 124.477 150.313 132.94 147.849C134.821 147.317 137.239 146.584 138.313 146.318C140.933 145.518 149.543 144.769 156.248 146.784Z" fill="#30282A"/>
<path id="Vector_7" d="M23.7921 112.552C23.7921 113.418 23.5234 115.016 23.1876 116.082C22.8517 117.147 22.4487 119.279 22.2472 120.744L21.9114 123.541L26.0759 124.273C28.2924 124.74 31.1135 125.206 32.2554 125.406L34.3376 125.805L35.0765 121.543C35.5467 119.279 36.084 116.548 36.2855 115.549C36.6886 113.884 36.4871 113.751 34.1361 113.351C32.6584 113.085 30.912 112.685 30.1732 112.352C29.4343 112.019 27.6879 111.62 26.3445 111.353C23.9936 111.02 23.7921 111.087 23.7921 112.552Z" fill="#30282A"/>
<path id="Vector_8" d="M38.569 115.882C38.569 116.814 38.3003 118.279 37.9645 119.145C37.6958 120.011 37.2256 121.942 36.957 123.474L36.554 126.271L39.7109 126.67C41.5245 126.87 43.4724 127.336 44.0769 127.736C44.7486 128.069 46.092 128.335 47.1667 128.335C48.9802 128.335 49.1146 128.069 50.2564 123.274C50.861 120.543 51.5326 117.879 51.7342 117.413C52.0028 116.747 50.7266 116.281 47.1667 115.682C44.4799 115.282 41.4573 114.749 40.4498 114.55C38.7705 114.217 38.569 114.416 38.569 115.882Z" fill="#30282A"/>
<path id="Vector_9" d="M146.845 124.073C146.727 124.223 147.643 128.679 145.955 130.666C145.686 130.983 145.199 131.416 145.199 131.416L144.444 131.998C142.144 132.531 140.917 132.265 137.895 131.998C132.387 131.532 131.06 130.999 130.523 125.139L130.12 120.677L130.053 125.139C129.918 129.068 130.12 129.801 131.665 131.466C133.277 133.197 133.747 133.33 138.986 133.33C142.546 133.33 145.737 133.131 146.207 132.664C146.879 131.998 146.509 131.865 147.248 132.531C148.658 133.663 159.053 133.164 159.943 132.465C160.564 132.165 160.816 131.915 161.068 131.665C161.824 130.417 162.898 130 163.167 125.006C163.436 120.677 163.436 120.677 162.898 124.14C161.891 130.2 160.967 130.283 158.549 131.416C156.198 132.481 152.353 132.514 149.33 131.649C147.718 131.183 147.618 124.073 147.618 124.073L146.979 117.347C146.979 117.347 146.963 123.923 146.845 124.073Z" fill="#30282A"/>
<path id="Vector_10" d="M21.1061 128.402C20.0985 132.065 19.1582 137.926 19.494 138.259C19.897 138.658 25.8751 139.724 28.4275 139.857C30.6441 139.99 30.8456 139.857 31.6516 137.127C32.0546 135.528 32.5248 132.864 32.6591 131.199L32.8607 128.136L29.1664 127.337C27.1513 126.937 24.666 126.338 23.6585 126.071C21.9793 125.605 21.8449 125.738 21.1061 128.402Z" fill="#30282A"/>
<path id="Vector_11" d="M35.4119 132.798C34.9417 134.929 34.4043 137.593 34.2028 138.725L33.7998 140.789L38.7703 141.988C45.8902 143.653 46.0917 143.52 47.0993 137.992C48.3083 130.8 48.577 131.266 43.4721 130.333C40.9197 129.934 38.3001 129.468 37.5613 129.268C36.3522 129.001 36.0836 129.401 35.4119 132.798Z" fill="#30282A"/>
<path id="Vector_12" d="M50.188 135.461C49.7178 137.192 49.2476 139.789 48.9789 141.121L48.5759 143.586L52.1359 144.585C54.0838 145.117 56.9721 145.717 58.5169 145.916L61.338 146.316L61.7411 143.852C62.0097 142.453 62.6143 139.923 63.1516 138.191C63.689 136.46 64.092 134.928 64.092 134.795C64.092 134.462 58.1811 133.196 54.0166 132.663L50.9268 132.197L50.188 135.461Z" fill="#30282A"/>
<path id="Vector_13" d="M65.1689 137.126C64.0942 142.654 63.5569 146.65 63.8255 147.116C64.0271 147.382 64.5644 147.649 65.1018 147.649C65.7063 147.649 66.2436 146.05 66.781 142.987C67.184 140.456 67.8557 138.192 68.1915 137.925C68.5274 137.725 68.7961 136.993 68.7961 136.26C68.7961 135.395 68.3259 134.995 67.184 134.995C65.9078 134.995 65.5048 135.461 65.1689 137.126Z" fill="#30282A"/>
<path id="Vector_14" d="M18.085 141.789C16.6073 148.049 16.0028 153.11 16.6745 153.31C19.5627 154.176 24.0631 154.975 25.7423 154.975C27.5559 154.975 27.7574 154.709 28.4962 151.778C28.9664 150.047 29.4366 147.25 29.6381 145.452C29.9739 142.521 29.8396 142.321 28.3619 142.321C27.5559 142.321 25.3393 141.855 23.5257 141.322C19.1597 139.991 18.488 140.057 18.085 141.789Z" fill="#30282A"/>
<path id="Vector_15" d="M32.5247 145.451C32.5247 146.45 32.1217 149.181 31.6515 151.445L30.7783 155.574L32.4575 156.041C34.4726 156.573 35.01 156.707 39.376 157.506L42.6001 158.105L43.2718 155.641C44.145 152.511 45.354 146.117 45.1525 145.984C45.0182 145.918 43.0031 145.518 40.585 145.052C38.1669 144.652 35.413 144.12 34.4054 143.92C32.7262 143.587 32.5247 143.72 32.5247 145.451Z" fill="#30282A"/>
<path id="Vector_16" d="M47.3669 149.447C46.0906 154.509 45.8891 158.039 46.7623 158.771C47.2325 159.171 49.4491 159.704 51.6657 159.903C53.8822 160.17 56.2332 160.503 56.8377 160.703C58.1139 161.102 58.9199 158.705 59.7259 152.444C60.129 149.181 60.129 148.981 58.7184 148.981C57.9124 148.981 56.7705 148.715 56.166 148.382C55.5615 148.115 53.4792 147.649 51.5313 147.383L48.0385 146.917L47.3669 149.447Z" fill="#30282A"/>
<path id="Vector_17" d="M62.4148 151.112C62.079 152.777 60.7356 161.035 60.7356 161.768C60.7356 162.101 61.3401 162.3 62.079 162.3C63.6239 162.3 64.0269 161.102 64.2284 154.708C64.3627 151.578 64.1612 150.046 63.6239 149.847C63.1537 149.647 62.6163 150.246 62.4148 151.112Z" fill="#30282A"/>
<path id="Vector_18" d="M29.5017 161.101C29.233 162.699 28.6285 165.43 28.0911 167.228C27.5538 169.026 27.1508 170.625 27.1508 170.691C27.1508 170.891 33.196 172.023 36.9574 172.556L39.6442 172.956L40.7861 168.094C42.5996 160.368 42.734 160.635 36.7559 159.636C33.9348 159.236 31.2481 158.704 30.7779 158.504C30.2405 158.304 29.8375 159.236 29.5017 161.101Z" fill="#30282A"/>
<path id="Vector_19" d="M43.8064 167.429C43.0003 171.691 42.866 173.356 43.4033 173.755C43.8735 173.955 46.0229 174.421 48.2395 174.621C50.5233 174.888 52.807 175.354 53.4115 175.687C54.2847 176.086 54.6206 175.62 55.2923 173.089C56.8371 167.096 57.2402 164.165 56.4341 164.032C56.0311 163.899 54.6206 163.499 53.3444 163.1C52.0681 162.767 49.6501 162.234 47.9708 162.034L44.8811 161.568L43.8064 167.429Z" fill="#30282A"/>
<path id="Vector_20" d="M59.7263 165.098C59.3233 166.363 58.0471 174.555 58.0471 175.82C58.0471 176.619 58.6516 176.952 59.995 176.952H61.9429L62.4131 171.225C62.7489 166.696 62.6818 165.364 62.0101 164.898C60.7339 164.099 60.0622 164.165 59.7263 165.098Z" fill="#30282A"/>
<path id="Vector_21" d="M41.5931 178.084C41.3244 179.083 40.7199 181.48 40.1825 183.412C38.7048 188.739 38.6376 188.673 44.4813 189.472C47.3024 189.872 50.1907 190.404 50.7281 190.604C51.6013 190.937 51.9371 190.205 52.6088 186.808C53.0118 184.477 53.5492 181.813 53.8178 180.814C54.0193 179.549 53.885 178.883 53.2805 178.75C52.7431 178.55 51.2654 178.15 49.9892 177.751C48.713 177.351 46.3621 176.885 44.8172 176.619C42.1304 176.219 41.9961 176.286 41.5931 178.084Z" fill="#30282A"/>
<path id="Vector_22" d="M55.8313 185.01C55.1596 188.406 54.7566 191.203 54.8238 191.337C54.9581 191.403 56.6374 191.736 58.5853 192.002L62.0781 192.469V186.342C62.0781 183.012 61.8765 180.281 61.6079 180.215C60.6003 180.148 59.0554 179.748 58.0479 179.349C57.1747 179.016 56.7717 180.081 55.8313 185.01Z" fill="#30282A"/>
<path id="Vector_23" d="M53.6139 196.2C53.3453 197.532 52.9423 199.064 52.6736 199.596C52.4049 200.129 52.0019 201.794 51.8004 203.326L51.3302 205.99L56.2335 207.122C58.9875 207.721 61.4727 208.254 61.8086 208.254C62.1444 208.254 62.3459 205.59 62.2116 202.06L62.0101 195.867L58.0471 194.801L54.017 193.736L53.6139 196.2Z" fill="#30282A"/>
<path id="Vector_24" d="M83.5724 277.981C78.9378 278.914 71.869 282.124 67.2504 287.971C64.7404 291.149 62.0112 295.963 62.4814 297.162C62.75 297.694 63.6904 298.36 64.6979 298.56C65.6383 298.826 64.3621 298.186 64.6979 298.519C66.713 300.051 91.8342 301.624 103.051 300.425C108.089 299.892 113.06 298.094 113.53 296.629C115.008 292.1 107.014 283.709 97.2749 279.646C93.8493 278.248 86.6622 277.315 83.5724 277.981Z" fill="#30282A"/>
<path id="Vector_25" d="M204.814 278.182C196.149 280.113 184.327 290.636 184.327 296.496C184.327 297.096 185.671 298.095 187.551 298.894C193.932 301.691 224.561 301.691 231.681 298.96C234.704 297.762 235.04 297.429 235.241 295.364C235.644 291.035 227.517 283.243 218.785 279.647C214.755 277.915 208.709 277.316 204.814 278.182Z" fill="#30282A"/>
</g>
</svg>
