<svg width="166" height="220" viewBox="0 0 166 220" fill="none" xmlns="http://www.w3.org/2000/svg">
<rect width="166" height="220" fill="white"/>
<path d="M92.0626 15.3887C88.6336 15.8091 85.6869 16.5395 81.7756 17.869C76.9271 19.5171 72.6739 21.7366 69.9223 23.4602C69.4989 23.7544 69.5836 24.1328 70.2609 25.1837C70.7266 25.9825 71.1076 26.9073 71.1076 27.2857C71.1076 28.6309 70.0069 27.8742 68.9909 25.8143C66.8743 21.4843 61.6249 18.2894 56.7143 18.2894C51.8036 18.2894 46.8082 21.3582 44.3952 25.8564C43.5062 27.4959 42.4902 28.2946 42.4902 32.1622C42.4902 36.9966 43.9296 38.468 46.6812 41.1585L47.9089 42.3356L48.6709 41.1585C49.0942 40.4859 49.8986 39.4349 50.4489 38.7623C50.9569 38.1317 51.8882 37.0387 52.4809 36.3661C53.5816 35.0208 54.5976 34.7266 54.5976 35.7355C54.5976 36.3661 51.7564 38.984 50.3219 41.3266C49.8489 42.0992 49.1789 43.3445 49.1789 43.3445C49.1789 43.3445 44.2259 51.1637 43.0829 54.4427C41.8552 57.974 41.6436 62.346 42.4902 65.0365C43.2099 67.1805 45.1572 71.4264 45.8346 72.3092C46.0039 72.5194 47.0199 73.8226 48.0359 75.2099C49.0942 76.5551 51.1865 78.9544 51.4226 79.1615C51.6587 79.3687 54.5129 82.0622 54.5129 82.0622C54.5129 82.0622 58.2383 85.2572 60.5243 86.9387C62.2599 88.2419 69.8799 92.698 70.8959 93.0764C71.1076 93.1184 72.0813 93.5388 73.0126 93.9592C76.0606 95.3044 83.723 97.7427 84.8236 97.7427C85.3316 97.7427 85.501 97.3223 85.501 96.0611C85.501 94.7159 85.3316 94.3796 84.739 94.3796C83.85 94.3796 79.7013 92.9923 79.2356 92.5299C79.0663 92.3617 78.389 91.9834 77.6693 91.6891C75.2986 90.6802 71.7849 87.1069 71.0229 84.8368C69.8799 81.5998 71.0653 78.531 74.3249 76.387C76.1876 75.2099 81.691 73.4863 81.691 73.4863C81.691 73.4863 83.2064 73.0261 84.1886 72.7717C93.9786 70.2353 100.332 70.1424 110.097 72.7717C111.147 73.0544 111.738 73.21 112.764 73.5704C117.469 75.224 122.585 77.6061 123.601 80.2966C124.744 83.2813 123.474 87.0228 120.511 89.5872C117.886 91.7732 115.05 93.0764 109.419 94.5898C109.165 94.6318 108.996 95.4306 108.996 96.3134V97.9529L110.689 97.8268C111.621 97.7427 112.806 97.2803 112.806 97.2803L113.949 96.9019C113.949 96.9019 126.945 92.4038 130.586 89.9235C131.433 89.377 132.322 88.9145 132.322 88.9145C132.322 88.9145 135.539 86.8126 139.688 83.4915C144.471 79.666 151.541 69.1563 151.541 69.1563C151.541 69.1563 152.337 67.7809 152.726 66.8442C154.585 62.3667 154.256 59.0416 152.726 54.4427C152.191 52.8313 151.541 51.8784 150.906 50.4911C149.551 47.4223 146.8 43.2604 143.498 39.1406C141.085 36.1559 140.661 35.1049 141.974 35.1049C142.609 35.1049 144.048 36.6603 146.546 40.0655L148.366 42.5458L149.805 40.6961C152.599 37.0807 153.488 31.952 152.049 27.8742C150.356 23.25 147.108 20.016 141.931 18.92C139.829 18.4749 138.539 18.4762 136.428 18.8779C134.495 19.2458 131.655 21.2216 130.597 21.8101C128.734 22.9032 126.564 26.487 126.564 26.487C126.564 26.487 125.337 28.1685 124.871 27.7061C124.617 27.4538 124.744 26.6971 125.294 25.6462C125.845 24.5532 125.972 23.8805 125.718 23.5442C125.125 22.8296 116.035 17.9515 109.165 16.3556C102.651 14.8424 97.4813 14.7161 92.0626 15.3887ZM61.0746 21.1901C63.0219 22.0308 63.9956 22.9137 62.9373 22.9137C62.5986 22.9137 61.2439 22.5353 59.8469 22.0308C58.1959 21.4843 56.7989 21.2321 55.6559 21.4003C50.7452 22.0308 46.1309 26.7812 46.1309 31.1953C46.1309 31.7418 45.9192 32.1622 45.6652 32.1622C45.0726 32.1622 46.0462 27.58 46.0462 27.58L46.7236 26.3608C46.7236 26.3608 50.1526 22.241 51.8036 21.6525C52.5232 21.4003 53.4123 20.9799 53.7509 20.8117C54.9363 20.1391 59.1273 20.3493 61.0746 21.1901ZM142.344 21.4948C143.614 21.8312 146.22 22.9491 147.096 23.9226C146.592 23.4776 147.631 24.3305 147.096 23.9226C149.119 25.7081 149.972 27.4579 150.059 30.1443C150.074 30.6041 150.059 31.2689 150.059 31.2689C150.059 31.2689 149.763 30.6068 149.17 28.9252C148.578 27.2437 148.895 27.864 148.578 27.2437C148.041 26.1941 147.505 25.7259 146.63 24.9315C143.1 21.7257 138.587 20.8538 134.565 22.8296C133.295 23.4602 132.914 23.5022 132.745 23.0818C132.491 22.4092 133.645 22.0939 136.312 21.3372C138.513 20.7066 139.042 20.57 142.344 21.4948ZM72.2083 44.5216C73.0126 45.3624 74.1979 47.128 74.8329 48.4732C75.9336 50.7433 75.9759 51.2058 75.9759 56.9651C75.9759 61.9256 75.8489 63.3129 75.2563 64.49C74.8329 65.2887 74.4943 66.1295 74.4943 66.3397C74.4943 67.1805 71.5309 70.3334 70.0069 71.0481C68.5676 71.7207 68.3559 71.7207 66.5779 71.0481C64.4189 70.2073 63.3606 69.1984 62.1329 66.8442C60.9476 64.6161 59.6776 59.4454 59.6776 57.0071C59.6776 54.695 61.8366 47.7165 61.8366 47.7165L62.2176 47.0439C62.2176 47.0439 64.9693 43.3865 66.0276 42.9662C66.3663 42.798 67.5939 42.756 68.6946 42.84C70.3879 42.9662 70.9806 43.2184 72.2083 44.5216ZM130.036 43.1343C134.904 45.7407 137.359 55.8721 134.989 63.5231C134.481 65.1206 134.212 65.7592 133.507 67.0964C133.287 67.5132 133.179 67.7572 132.914 68.1474C132.183 69.2266 130.639 70.2704 130.459 70.4175C130.279 70.5646 130.119 70.753 129.866 70.9219C129.118 71.4219 127.623 71.4684 127.623 71.4684C127.623 71.4684 126.183 71.3715 125.421 70.9219C125.137 70.7542 124.744 70.4175 124.744 70.4175C124.744 70.4175 120.595 66.4658 120.045 63.3129C119.495 60.16 119.579 56.9651 119.579 56.9651C119.579 56.9651 119.139 52.9762 119.897 50.6067C121.204 46.5202 124.405 42.7139 127.538 42.6719C128.427 42.6719 129.57 42.8821 130.036 43.1343Z" fill="#30282A"/>
<path d="M64.8225 45.6576C63.6591 46.5251 62.8729 48.8132 62.8069 49.0641C62.7408 49.3149 61.2607 52.6145 61.0971 55.0322C60.7275 60.4941 63.3831 67.812 66.8968 67.812C68.3785 67.812 69.9713 66.1605 71.0878 64.3648C71.625 63.5009 72.1038 61.9686 72.1038 61.9686C72.1038 61.9686 72.5695 59.0679 72.5695 56.7138C72.5695 51.2067 71.5958 48.1379 69.2251 46.12C67.2778 44.4805 65.9858 44.7901 64.8225 45.6576ZM66.7488 47.9487C67.0677 48.2177 67.827 49.2681 67.92 49.9104C68.0881 51.071 66.1348 51.4169 65.5421 51.4169C62.8328 51.4169 63.8771 46.8986 65.4998 47.213C66.0564 47.3209 66.4298 47.6796 66.7488 47.9487Z" fill="#30282A"/>
<path d="M125.323 45.403C121.936 47.5891 120.116 54.4414 121.428 60.1166C122.571 65.0772 124.476 67.6836 126.931 67.6836C129.26 67.6836 131.08 65.3715 132.265 60.8313C133.281 57.0057 133.281 55.9968 132.181 51.7509C131.292 48.0935 128.995 45.1823 128.519 45.0247C128.043 44.867 126.804 44.4361 125.323 45.403ZM130.191 48.1356C131.503 50.1114 128.836 52.1713 127.185 50.5318C126.254 49.6069 126.381 48.5559 127.482 47.6311C128.201 47.0846 129.683 47.3368 130.191 48.1356Z" fill="#30282A"/>
<path d="M89.2255 70.1549C89.0985 70.2389 87.1088 70.6173 84.7805 70.9536C75.1284 72.2568 70.1331 75.9562 71.4878 80.7486C72.3344 83.8595 75.8904 86.7602 81.6478 88.9882C83.4681 89.7029 84.8651 89.9131 87.9978 89.9131C91.5961 89.9131 92.2311 89.787 94.1361 88.736L96.2951 87.5589L98.3695 88.736C100.274 89.787 100.867 89.9131 104.508 89.9131C109.08 89.9131 112.085 89.1143 116.023 86.8443C122.203 83.313 123.558 77.6798 118.901 74.695C118.097 74.1485 116.912 73.3078 116.912 73.3078L115.853 72.8874L114.16 72.2988C114.16 72.2988 102.349 69.9447 95.7025 69.9447C92.2311 69.9447 89.3101 70.0287 89.2255 70.1549ZM100.655 71.7103C104.127 72.8033 105.185 75.6199 102.941 77.7218C101.587 78.941 99.8088 79.4034 96.4645 79.4034C91.6808 79.4034 88.8445 77.932 88.8445 75.4097C88.8445 73.8122 89.9028 72.8874 89.9028 72.8874C89.9028 72.8874 90.3327 72.5671 90.6225 72.3829C93.0696 70.8273 96.1681 70.8695 97.9461 71.0797C98.6658 71.1638 99.8511 71.4581 100.655 71.7103Z" fill="#30282A"/>
<path d="M20.8995 74.1902C18.1055 74.6946 13.1102 77.217 11.1629 79.1507C8.58052 81.631 6.76019 84.6999 4.98219 89.7025C4.05085 92.2669 3.96618 93.0656 4.00852 101.684C4.00852 109.839 4.09318 111.352 4.93985 114.547C5.44785 116.565 5.87119 118.499 5.87119 118.877C5.87119 119.256 6.04052 119.886 6.25219 120.307C6.46385 120.685 7.14119 122.619 7.77619 124.595C8.36886 126.571 9.25786 129.093 9.72353 130.27C10.2315 131.405 10.8242 132.918 11.0782 133.633C11.6709 135.104 16.7932 145.194 18.0209 147.338C18.5289 148.178 19.1639 149.313 19.5025 149.86C19.7989 150.406 20.1375 150.953 20.2645 151.079C20.3915 151.205 21.3652 152.593 22.4235 154.232C26.3182 160.159 32.0332 168.567 32.6682 169.366C32.9646 169.744 33.6419 170.669 37.1132 175.378C37.4942 175.924 38.2562 176.891 38.8066 177.479C39.3146 178.11 39.9072 178.783 40.0766 179.035C42.1509 181.894 46.8076 186.77 49.8556 189.292L51.8029 190.932L53.2846 190.133C54.0889 189.671 55.1896 189.334 55.7399 189.334C56.7136 189.334 56.6713 189.334 55.5283 188.199C54.1313 186.812 51.8029 183.365 49.9402 179.918C48.8819 177.9 48.6279 177.648 48.6279 178.572C48.6279 179.161 48.4162 179.665 48.1622 179.665C47.8659 179.665 47.7812 179.077 47.9082 178.11C48.1199 176.471 47.5272 173.107 46.8922 172.267C46.6806 172.014 46.3842 170.879 46.2149 169.786C46.0456 168.315 45.7492 167.726 45.1566 167.558C44.2252 167.348 44.1406 166.633 45.0296 166.633C45.7069 166.633 45.9186 165.162 45.2836 164.784C45.0719 164.658 44.7756 163.018 44.6062 161.168C44.1406 156.124 43.5479 156.166 42.4472 161.253C42.1086 162.934 41.6006 165.33 41.3466 166.507C41.0926 167.726 40.7116 168.735 40.4999 168.735C40.0766 168.735 40.0342 166.045 40.4576 165.625C40.6269 165.498 40.7962 165.036 40.8386 164.616C40.8809 164.237 41.1349 162.514 41.3889 160.832C41.6429 159.109 41.7699 157.595 41.6429 157.385C41.5159 157.175 40.7116 156.923 39.8226 156.754C38.9759 156.628 37.7906 156.208 37.1979 155.872C36.3936 155.409 36.3512 155.283 36.9862 155.451C37.4519 155.577 38.8912 155.703 40.1612 155.787L42.4472 155.914L42.9976 152.172C43.2939 150.112 43.5056 148.347 43.4209 148.263C43.3362 148.22 41.9392 147.884 40.3306 147.548C38.7219 147.254 37.1132 146.875 36.7746 146.707C36.0972 146.413 35.3776 148.263 34.8272 151.71C34.7002 152.635 34.3616 154.064 34.0652 154.863C33.7266 155.661 33.3879 157.217 33.2186 158.31C33.0492 159.403 32.7529 160.412 32.4989 160.538C32.0332 160.874 32.0332 159.403 32.5836 156.965C33.0916 154.526 34.2346 147.716 34.2346 146.875C34.2346 146.455 33.3456 145.95 31.6522 145.446C29.7472 144.899 29.1969 144.563 29.5356 144.227C29.8742 143.89 30.1282 143.89 30.5092 144.269C30.8056 144.563 31.9062 144.773 32.9646 144.773H34.9542L35.4199 141.704C35.6739 140.065 35.9702 138.299 36.0126 137.879C36.1396 136.996 35.7162 136.828 30.9326 135.861C28.9429 135.441 28.6466 135.441 28.0962 136.197C27.7576 136.618 27.4612 137.417 27.4612 137.921C27.4612 139.224 26.9956 140.191 26.5299 139.897C26.3182 139.729 26.3182 139.476 26.5299 139.182C26.7839 138.888 26.9956 137.879 27.1226 136.912C27.2496 135.399 27.1226 135.104 26.2759 134.726C25.7256 134.474 24.9635 134.264 24.5402 134.264C24.1592 134.264 23.4395 133.969 22.9739 133.591C22.2119 133.002 22.2965 132.96 23.8629 133.213C24.7942 133.381 25.9796 133.591 26.4876 133.717C27.2919 133.885 27.4189 133.717 27.6729 131.867C27.7999 130.774 28.0962 129.429 28.3502 128.883C28.8582 127.664 28.8582 125.982 28.3502 125.688C28.1386 125.52 26.6569 125.183 25.0482 124.847C23.4819 124.553 21.9155 124.216 21.5769 124.132C21.1535 124.006 20.7302 125.057 20.0105 127.748C18.4442 133.885 18.1055 134.516 18.4019 131.111C18.5289 129.513 18.8252 127.748 19.0369 127.201C19.2485 126.655 19.4179 125.562 19.4179 124.763C19.4179 123.628 19.2485 123.334 18.6135 123.334C18.1902 123.334 17.2589 123.039 16.6239 122.661C15.3962 122.03 15.4385 122.03 17.5552 122.283L19.7565 122.577L20.0529 120.307C20.2222 119.088 20.5609 117.868 20.7725 117.574C20.9842 117.322 21.1112 116.481 21.0265 115.724C20.8995 114.421 20.7725 114.337 18.3595 113.791C13.2372 112.614 13.6182 112.614 13.2795 114.043C12.8985 115.851 12.0942 115.724 12.3059 113.875C12.4329 112.74 12.3059 112.403 11.7979 112.403C11.4592 112.403 10.7819 112.067 10.3162 111.731C9.51186 111.1 9.55419 111.1 11.0782 111.352C12.4752 111.647 12.6445 111.563 12.6445 110.722C12.6445 110.217 12.8139 109.503 13.0255 109.124C13.1949 108.746 13.4912 107.233 13.6182 105.845C13.8722 103.323 13.8722 103.239 12.7292 102.819C12.0942 102.566 10.9512 102.23 10.1892 102.104C9.46953 101.936 8.83452 101.642 8.83452 101.431C8.83452 100.927 9.38486 100.927 9.89286 101.431C10.1469 101.642 11.1629 101.894 12.2212 101.978L14.1262 102.104L14.5919 100.212C14.8459 99.1612 15.1845 97.3535 15.3539 96.1765C15.6079 94.2006 15.5232 93.9904 14.5919 93.5701C14.0415 93.3599 12.6869 92.9815 11.5439 92.8134C10.4009 92.6452 9.21553 92.2669 8.87686 91.9305C8.36886 91.384 8.49586 91.342 9.93519 91.5942C10.8242 91.7203 12.4752 92.0567 13.5759 92.2669C14.6765 92.5191 15.7349 92.6032 15.9465 92.477C16.1582 92.3509 16.5815 90.8375 16.8355 89.0719C17.1319 87.3483 17.5552 85.8349 17.7669 85.7088C18.3595 85.3305 18.2325 84.6578 17.5129 84.6578C17.1742 84.6578 16.5392 84.4897 16.1159 84.2795C15.7349 84.0272 14.6765 83.733 13.8299 83.6069C12.9409 83.4807 12.2212 83.1444 12.2212 82.8922C12.2212 82.5139 15.0152 82.5979 17.9362 83.1024C18.1479 83.1444 18.4019 82.682 18.4865 82.0094C18.6982 80.4119 19.4179 80.5801 19.4179 82.2616V83.6489L22.7199 84.1534C24.4979 84.4056 26.3606 84.6578 26.8262 84.7419C27.3766 84.826 27.6729 84.5738 27.7999 84.0272C27.8846 83.5648 28.0962 82.8081 28.3079 82.3457C28.5196 81.8833 28.7736 81.1266 28.9006 80.6641C29.0276 80.2017 29.0276 81.0845 28.9429 82.5979L28.7736 85.4145L30.7632 85.7088C31.8639 85.877 33.0492 86.1292 33.3879 86.3394C33.7266 86.5075 34.7426 86.7598 35.6316 86.9279C36.9862 87.1802 37.1979 87.0961 37.1979 86.4235C37.1979 85.961 37.4942 85.0362 37.8329 84.4056C38.4679 83.2285 38.4679 83.2285 38.2139 85.3725C37.9599 87.4324 38.0022 87.6005 38.8066 87.6005C39.3146 87.6005 39.8226 87.7687 39.9496 88.0209C40.0766 88.2311 40.6692 88.4413 41.2619 88.4413C41.8546 88.4413 42.1932 88.6095 42.0662 88.8617C41.7276 89.4082 39.4839 89.4082 38.4256 88.8617C37.7059 88.4834 37.6212 88.5674 37.6212 89.6184C37.6212 90.291 37.4519 91.384 37.2402 92.0567C37.0286 92.7293 36.7322 93.9904 36.6476 94.8312C36.3936 96.4707 36.3089 96.3867 39.3146 97.0593C44.4792 98.2364 44.6909 98.2364 45.0296 97.1854C45.8339 94.8312 46.0456 94.579 45.8339 96.3026C45.6222 97.7739 45.7492 98.1102 46.4689 98.5306C47.6542 99.1192 48.0352 98.8669 48.6279 96.9332C49.2206 95.1255 51.0833 90.291 51.5913 89.3241C53.7926 85.1203 54.0466 83.8171 52.7343 83.8171C52.3956 83.8171 51.8029 83.4387 51.3796 82.9763C50.9563 82.5139 50.4059 82.1355 50.1942 82.1355C49.9402 82.1355 49.4322 81.8833 49.0936 81.547C48.1622 80.7482 41.0079 77.0908 40.3306 77.0908C40.0342 77.0908 39.7379 76.9227 39.6532 76.7545C39.5262 76.4603 36.8592 75.5775 32.9646 74.5685C30.6786 73.98 23.2702 73.7277 20.8995 74.1902Z" fill="#30282A"/>
<path d="M56.1202 84.5329C52.1409 91.9737 50.8286 95.3368 47.9499 105.468C46.9762 108.999 46.0449 114.885 45.6216 120.812C45.1136 127.328 45.4522 154.023 46.0872 158.227C46.3412 159.74 46.7222 162.389 46.9762 164.112C47.7806 169.872 49.6856 175.547 52.5219 180.76C54.7656 184.879 57.8982 188.495 59.2106 188.495C60.5652 188.495 65.2642 189.798 67.1693 190.681C69.6246 191.816 71.5801 194.354 74.7046 196.272C75.9831 197.057 76.6917 197.522 78.0489 198.164C84.6379 201.278 89.2768 202.251 96.8968 202.251C104.602 202.209 113.99 198.836 114.879 198.164C115.133 197.996 118.511 196.621 119.908 196.327C122.406 195.823 122.465 195.481 122.465 195.481C122.465 195.481 130.119 189.798 132.151 189.336C133.506 189.041 134.479 188.369 136.13 186.603C137.358 185.342 138.374 183.997 138.374 183.997L138.967 183.072C138.967 183.072 142.523 176.892 143.073 175C143.369 173.991 143.75 172.94 143.92 172.73C144.089 172.478 144.428 171.091 144.682 169.577C144.978 168.064 145.359 166.466 145.571 166.004C145.952 165.121 146.671 159.11 147.264 151.29C147.772 145.237 147.73 123.587 147.264 119.551C146.036 109.336 143.454 98.9101 140.448 92.2259C137.019 84.5328 138.155 82.2285 135.241 84.4488C134.954 84.668 134.842 84.8476 134.564 85.0794C133.685 85.8134 132.024 86.5507 132.024 86.5507C132.024 86.5507 130.497 87.4396 129.526 88.0221C129.145 88.2507 128.936 88.3855 128.553 88.6106C127.356 89.314 126.817 89.7036 125.42 90.2922C124.065 90.9228 122.626 91.5954 122.245 91.8055C121.61 92.1419 117.673 93.4451 112.974 94.9164C111.916 95.2527 110.265 95.6311 109.333 95.7992C107.809 96.0094 107.513 96.2617 107.344 97.2706C106.92 99.2044 104.804 100.213 100.994 100.213C99.2156 100.213 97.5223 99.7929 97.5223 99.7929C97.5223 99.7929 96.5698 99.6878 96.3054 99.6878C96.0409 99.6878 94.9823 99.7929 94.9823 99.7929C94.9823 99.7929 93.416 100.213 91.8073 100.213C88.717 100.213 85.8806 98.2375 85.8806 98.2375L85.4573 97.691C85.4573 97.691 85.0339 97.3126 85.0339 96.8502C85.0339 96.3878 84.7799 95.9254 84.5259 95.8413C84.2296 95.7572 82.4516 95.2527 80.5889 94.7483C77.2446 93.8655 75.0433 93.1088 72.5456 92.0158C71.8683 91.7215 70.0903 90.9228 68.6509 90.2922C67.1693 89.6616 65.9839 88.8208 65.9839 88.8208L65.3912 88.4425C65.3912 88.4425 63.0629 87.3074 60.9886 85.9201C58.8719 84.5329 57.0516 83.3978 56.9669 83.3978C56.8399 83.3978 56.4589 83.9023 56.1202 84.5329ZM102.475 107.654C103.231 107.882 104.38 108.327 104.38 108.327C104.38 108.327 113.905 112.615 117.546 116.146C118.731 117.323 119.747 118.71 119.747 118.71C119.747 118.71 121.314 118.122 128.172 113.161C131.093 111.059 132.278 110.387 132.617 110.765C133.167 111.312 132.955 111.522 124.404 117.617C114.159 124.974 111.196 127.244 110.476 128.379C110.138 128.968 109.63 129.556 109.418 129.725C109.164 129.893 108.952 131.49 108.952 133.298C108.952 136.156 109.122 136.787 110.095 138.3C111.662 140.697 113.482 142.084 116.149 142.925C118.35 143.639 118.52 143.639 121.229 142.715C122.795 142.21 124.446 141.369 124.87 140.865C125.759 139.856 131.77 132.121 132.955 130.439C133.379 129.893 134.479 128.379 135.411 127.118C136.384 125.857 137.485 124.344 137.866 123.797C138.247 123.251 138.797 122.62 139.051 122.326C139.305 122.073 139.813 121.359 140.237 120.686C140.999 119.551 142.184 119.131 142.184 120.014C142.184 120.476 140.364 123.251 138.84 125.016C138.374 125.605 137.824 126.235 137.654 126.488C136.808 127.539 130.458 136.199 130.204 136.661C130.034 136.913 130.204 139.309 130.585 141.916C131.558 148.726 131.77 152.972 131.22 156.125C130.966 157.638 130.585 160.371 130.331 162.178C130.077 164.028 129.738 165.71 129.526 165.962C129.315 166.214 129.018 167.013 128.891 167.728C128.722 168.442 128.129 170.124 127.537 171.511C126.986 172.856 126.182 174.706 125.843 175.547C125.462 176.43 125.251 177.092 125.039 177.092C124.827 177.092 124.087 178.668 123.928 178.983C123.769 179.299 123.981 178.826 123.473 179.54C122.922 180.255 122.203 181.264 121.864 181.811C120.848 183.366 114.837 189.336 114.286 189.336C114.085 189.546 114.085 189.546 113.927 189.703C113.597 190.03 113.186 190.555 108.91 192.657C107.301 193.413 105.693 194.212 105.269 194.422C103.618 195.221 98.6653 195.725 94.178 195.515C89.0133 195.305 85.4996 194.254 80.5889 191.48C75.3396 188.495 68.0159 179.793 65.3912 173.361C64.7562 171.847 64.0789 170.25 63.8249 169.787C62.1316 166.298 60.2266 154.738 60.6076 150.029C60.8616 146.708 61.6236 140.949 62.0046 139.225C62.2586 137.922 61.8352 136.955 59.5916 134.055C58.6602 132.877 57.8136 131.742 57.6442 131.532C57.4326 131.28 56.9669 130.649 56.5859 130.061C56.2049 129.472 55.2312 128.127 54.4692 127.076C50.5746 121.695 49.4739 119.929 49.6856 119.509C49.8549 119.299 50.1512 119.131 50.3206 119.215C50.5322 119.299 53.4532 123.124 56.7976 127.749C60.1842 132.373 63.1052 136.325 63.3169 136.577C63.4862 136.787 64.2059 137.796 64.8832 138.805C66.1956 140.697 68.4393 142.21 71.2333 143.093C72.6303 143.555 73.2653 143.513 75.3819 142.841C78.8956 141.79 81.2663 139.435 82.2399 135.988C82.9173 133.55 82.9173 133.382 82.0706 130.944C81.6049 129.514 80.8429 128.001 80.3773 127.539C79.6576 126.824 76.0593 124.091 65.8992 116.524C65.4759 116.23 63.7402 114.927 62.0046 113.666C58.9566 111.438 58.3216 110.639 59.1682 110.092C59.3799 109.966 62.3432 111.942 65.7299 114.464L71.8683 119.047L73.3076 117.491C77.5833 112.951 82.4516 109.882 87.7856 108.327C88.971 107.99 90.495 107.528 91.1723 107.36C92.8233 106.855 98.2495 106.382 102.475 107.654Z" fill="#30282A"/>
<path d="M18.995 86.0461C18.995 86.5927 18.8257 87.6016 18.614 88.2742C18.4024 88.9468 18.1484 90.2921 18.0214 91.2169L17.8097 92.9825L20.4344 93.445C21.8314 93.7392 23.6094 94.0335 24.329 94.1596L25.6414 94.4119L26.107 91.7214C26.4034 90.2921 26.742 88.5685 26.869 87.9379C27.123 86.8869 26.996 86.8028 25.5144 86.5506C24.583 86.3825 23.4824 86.1302 23.0167 85.92C22.551 85.7098 21.4504 85.4576 20.6037 85.2895C19.122 85.0793 18.995 85.1213 18.995 86.0461Z" fill="#30282A"/>
<path d="M28.3082 88.1478C28.3082 88.7363 28.1389 89.6612 27.9272 90.2077C27.7579 90.7542 27.4615 91.9733 27.2922 92.9402L27.0382 94.7058L29.0279 94.9581C30.1709 95.0842 31.3985 95.3785 31.7795 95.6307C32.2029 95.8409 33.0496 96.009 33.7269 96.009C34.8699 96.009 34.9546 95.8409 35.6742 92.8141C36.0552 91.0905 36.4786 89.4089 36.6056 89.1147C36.7749 88.6943 35.9706 88.4 33.7269 88.0217C32.0335 87.7694 30.1285 87.4331 29.4935 87.307C28.4352 87.0968 28.3082 87.2229 28.3082 88.1478Z" fill="#30282A"/>
<path d="M96.5492 93.3186C96.475 93.4132 97.0519 96.226 95.9885 97.4804C95.8191 97.6802 95.5122 97.9533 95.5122 97.9533L95.036 98.3212C93.5862 98.6575 92.8134 98.4894 90.9084 98.3212C87.4371 98.0269 86.6009 97.6906 86.2622 93.9912L86.0082 91.1746L85.9659 93.9912C85.8812 96.4715 86.0082 96.9339 86.9819 97.9849C87.9979 99.0779 88.2942 99.162 91.5962 99.162C93.8399 99.162 95.8509 99.0358 96.1472 98.7415C96.5705 98.3212 96.3376 98.2371 96.8032 98.6575C97.6922 99.3722 104.243 99.0568 104.804 98.6155C105.196 98.4263 105.355 98.2686 105.513 98.111C105.99 97.3227 106.667 97.06 106.836 93.9071C107.006 91.1746 107.006 91.1746 106.667 93.3606C106.032 97.1862 105.45 97.2387 103.926 97.9533C102.444 98.6259 100.021 98.647 98.1156 98.1005C97.0996 97.8062 97.0362 93.3186 97.0362 93.3186L96.6339 89.0727C96.6339 89.0727 96.6235 93.224 96.5492 93.3186Z" fill="#30282A"/>
<path d="M17.3021 96.0513C16.6671 98.3634 16.0745 102.063 16.2861 102.273C16.5401 102.525 20.3078 103.198 21.9165 103.282C23.3135 103.366 23.4405 103.282 23.9485 101.558C24.2025 100.549 24.4988 98.8679 24.5835 97.8169L24.7105 95.8831L22.3821 95.3787C21.1121 95.1264 19.5458 94.7481 18.9108 94.5799C17.8525 94.2856 17.7678 94.3697 17.3021 96.0513Z" fill="#30282A"/>
<path d="M26.3184 98.8257C26.022 100.171 25.6834 101.853 25.5564 102.567L25.3024 103.87L28.435 104.627C32.9224 105.678 33.0494 105.594 33.6844 102.105C34.4464 97.5646 34.6157 97.8588 31.3984 97.2703C29.7897 97.0181 28.1387 96.7238 27.673 96.5977C26.911 96.4295 26.7417 96.6817 26.3184 98.8257Z" fill="#30282A"/>
<path d="M35.6311 100.507C35.3348 101.6 35.0384 103.239 34.8691 104.08L34.6151 105.635L36.8588 106.266C38.0865 106.602 39.9068 106.981 40.8805 107.107L42.6585 107.359L42.9125 105.804C43.0818 104.921 43.4628 103.323 43.8015 102.23C44.1401 101.137 44.3941 100.17 44.3941 100.086C44.3941 99.8761 40.6688 99.0774 38.0441 98.7411L36.0968 98.4468L35.6311 100.507Z" fill="#30282A"/>
<path d="M45.0728 101.558C44.3955 105.047 44.0568 107.569 44.2261 107.864C44.3531 108.032 44.6918 108.2 45.0305 108.2C45.4115 108.2 45.7501 107.191 46.0888 105.257C46.3428 103.66 46.7661 102.231 46.9778 102.062C47.1895 101.936 47.3588 101.474 47.3588 101.011C47.3588 100.465 47.0625 100.213 46.3428 100.213C45.5385 100.213 45.2845 100.507 45.0728 101.558Z" fill="#30282A"/>
<path d="M15.3981 104.501C14.4668 108.453 14.0858 111.648 14.5091 111.774C16.3294 112.32 19.1658 112.825 20.2241 112.825C21.3671 112.825 21.4941 112.657 21.9598 110.807C22.2561 109.714 22.5524 107.948 22.6794 106.813C22.8911 104.964 22.8064 104.837 21.8751 104.837C21.3671 104.837 19.9701 104.543 18.8271 104.207C16.0754 103.366 15.6521 103.408 15.3981 104.501Z" fill="#30282A"/>
<path d="M24.4987 106.813C24.4987 107.444 24.2447 109.167 23.9484 110.597L23.3981 113.203L24.4564 113.497C25.7264 113.834 26.0651 113.918 28.8167 114.422L30.8487 114.801L31.2721 113.245C31.8224 111.269 32.5844 107.234 32.4574 107.149C32.3728 107.107 31.1027 106.855 29.5787 106.561C28.0547 106.309 26.3191 105.972 25.6841 105.846C24.6257 105.636 24.4987 105.72 24.4987 106.813Z" fill="#30282A"/>
<path d="M33.8531 109.336C33.0487 112.531 32.9217 114.759 33.4721 115.221C33.7684 115.473 35.1654 115.81 36.5624 115.936C37.9594 116.104 39.4411 116.314 39.8221 116.44C40.6264 116.692 41.1344 115.179 41.6424 111.227C41.8964 109.167 41.8964 109.041 41.0074 109.041C40.4994 109.041 39.7798 108.873 39.3988 108.663C39.0178 108.495 37.7054 108.201 36.4777 108.032L34.2764 107.738L33.8531 109.336Z" fill="#30282A"/>
<path d="M43.337 110.386C43.1254 111.437 42.2787 116.65 42.2787 117.112C42.2787 117.323 42.6597 117.449 43.1254 117.449C44.099 117.449 44.353 116.692 44.48 112.656C44.5647 110.68 44.4377 109.714 44.099 109.587C43.8027 109.461 43.464 109.84 43.337 110.386Z" fill="#30282A"/>
<path d="M22.5935 116.692C22.4242 117.701 22.0432 119.424 21.7045 120.559C21.3658 121.694 21.1118 122.703 21.1118 122.745C21.1118 122.871 24.9218 123.586 27.2925 123.922L28.9858 124.175L29.7055 121.106C30.8485 116.229 30.9332 116.397 27.1655 115.767C25.3875 115.515 23.6942 115.178 23.3978 115.052C23.0592 114.926 22.8052 115.515 22.5935 116.692Z" fill="#30282A"/>
<path d="M31.6091 120.686C31.1011 123.376 31.0164 124.427 31.3551 124.68C31.6514 124.806 33.0061 125.1 34.4031 125.226C35.8424 125.394 37.2817 125.688 37.6627 125.899C38.2131 126.151 38.4247 125.857 38.8481 124.259C39.8217 120.476 40.0757 118.626 39.5677 118.542C39.3137 118.458 38.4247 118.206 37.6204 117.953C36.8161 117.743 35.2921 117.407 34.2337 117.281L32.2864 116.986L31.6091 120.686Z" fill="#30282A"/>
<path d="M41.6427 119.214C41.3887 120.013 40.5844 125.184 40.5844 125.983C40.5844 126.487 40.9654 126.697 41.812 126.697H43.0397L43.336 123.082C43.5477 120.223 43.5054 119.383 43.082 119.088C42.2777 118.584 41.8544 118.626 41.6427 119.214Z" fill="#30282A"/>
<path d="M30.2141 127.412C30.0448 128.042 29.6638 129.556 29.3251 130.775C28.3938 134.138 28.3514 134.096 32.0344 134.6C33.8124 134.852 35.6328 135.189 35.9714 135.315C36.5218 135.525 36.7334 135.063 37.1568 132.919C37.4108 131.447 37.7494 129.766 37.9188 129.135C38.0458 128.336 37.9611 127.916 37.5801 127.832C37.2414 127.706 36.3101 127.454 35.5058 127.201C34.7014 126.949 33.2198 126.655 32.2461 126.487C30.5528 126.234 30.4681 126.277 30.2141 127.412Z" fill="#30282A"/>
<path d="M39.1878 131.783C38.7645 133.927 38.5105 135.693 38.5528 135.777C38.6375 135.819 39.6958 136.029 40.9235 136.198L43.1248 136.492V132.624C43.1248 130.522 42.9978 128.799 42.8285 128.757C42.1935 128.715 41.2198 128.462 40.5848 128.21C40.0345 128 39.7805 128.673 39.1878 131.783Z" fill="#30282A"/>
<path d="M37.7903 138.847C37.621 139.688 37.367 140.655 37.1976 140.991C37.0283 141.327 36.7743 142.378 36.6473 143.345L36.351 145.027L39.4413 145.741C41.177 146.12 42.7433 146.456 42.955 146.456C43.1666 146.456 43.2936 144.775 43.209 142.546L43.082 138.637L40.5843 137.964L38.0443 137.292L37.7903 138.847Z" fill="#30282A"/>
<path d="M56.6717 190.47C53.7507 191.058 49.2956 193.085 46.3847 196.776C44.8028 198.782 43.0827 201.82 43.379 202.577C43.5484 202.913 44.141 203.334 44.776 203.46C45.3687 203.628 44.5644 203.224 44.776 203.434C46.046 204.401 61.8787 205.394 68.9484 204.637C72.1234 204.301 75.2561 203.166 75.5524 202.241C76.4837 199.382 71.4461 194.085 65.3077 191.521C63.1487 190.638 58.6191 190.05 56.6717 190.47Z" fill="#30282A"/>
<path d="M133.084 190.596C127.623 191.816 120.172 198.458 120.172 202.157C120.172 202.535 121.019 203.166 122.204 203.67C126.226 205.436 145.53 205.436 150.018 203.713C151.923 202.956 152.134 202.746 152.261 201.442C152.515 198.71 147.393 193.791 141.89 191.521C139.35 190.428 135.54 190.05 133.084 190.596Z" fill="#30282A"/>
</svg>
