<svg width="200" height="64" viewBox="0 0 200 64" fill="none" xmlns="http://www.w3.org/2000/svg">
<g id="logo">
<g id="Group">
<path id="Vector" d="M29.3544 0.130447C28.2114 0.271561 27.2291 0.516731 25.9254 0.963007C24.3092 1.51623 22.8914 2.26124 21.9742 2.8398C21.8331 2.93858 21.8613 3.06558 22.0871 3.41836C22.2423 3.68647 22.3693 3.99692 22.3693 4.12392C22.3693 4.57548 22.0024 4.32147 21.6638 3.63002C20.9582 2.17657 19.2084 1.10412 17.5715 1.10412C15.9346 1.10412 14.2695 2.13424 13.4652 3.64414C13.1688 4.19448 12.8302 4.46259 12.8302 5.76082C12.8302 7.38361 13.3099 7.8775 14.2272 8.78061L14.6364 9.17573L14.8904 8.78061C15.0315 8.55483 15.2996 8.20205 15.4831 7.97628C15.6524 7.76461 15.9628 7.39772 16.1604 7.17194C16.5273 6.72038 16.866 6.6216 16.866 6.96027C16.866 7.17194 15.9189 8.05072 15.4407 8.83706C15.283 9.09637 15.0597 9.5144 15.0597 9.5144C15.0597 9.5144 13.4087 12.1391 13.0277 13.2398C12.6185 14.4251 12.5479 15.8927 12.8302 16.7958C13.0701 17.5154 13.7192 18.9407 13.9449 19.237C14.0014 19.3076 14.3401 19.745 14.6787 20.2107C15.0315 20.6622 15.7289 21.4676 15.8076 21.5371C15.8863 21.6067 16.8377 22.5108 16.8377 22.5108C16.8377 22.5108 18.0795 23.5833 18.8415 24.1477C19.4201 24.5852 21.9601 26.0809 22.2988 26.2079C22.3693 26.2221 22.6939 26.3632 23.0043 26.5043C24.0203 26.9558 26.5745 27.7743 26.9414 27.7743C27.1107 27.7743 27.1671 27.6332 27.1671 27.2098C27.1671 26.7583 27.1107 26.6454 26.9131 26.6454C26.6168 26.6454 25.2339 26.1797 25.0787 26.0245C25.0222 25.9681 24.7965 25.8411 24.5566 25.7423C23.7663 25.4036 22.5951 24.2042 22.3411 23.4422C21.9601 22.3556 22.3552 21.3255 23.4418 20.6058C24.0627 20.2107 25.8971 19.6321 25.8971 19.6321C25.8971 19.6321 26.4023 19.4777 26.7297 19.3922C29.993 18.5408 32.1107 18.5097 35.3657 19.3922C35.7157 19.4871 35.9129 19.5394 36.2548 19.6604C37.8231 20.2154 39.5286 21.015 39.8672 21.9181C40.2482 22.92 39.8249 24.1759 38.8371 25.0367C37.9622 25.7705 37.0168 26.2079 35.14 26.716C35.0553 26.7301 34.9989 26.9982 34.9989 27.2945V27.8448L35.5633 27.8025C35.8738 27.7743 36.2689 27.6191 36.2689 27.6191L36.6499 27.4921C36.6499 27.4921 40.982 25.9822 42.1956 25.1496C42.4778 24.9662 42.7741 24.8109 42.7741 24.8109C42.7741 24.8109 43.8466 24.1054 45.2295 22.9906C46.824 21.7065 49.1806 18.1787 49.1806 18.1787C49.1806 18.1787 49.4461 17.717 49.5757 17.4026C50.1954 15.8996 50.0855 14.7834 49.5757 13.2398C49.3971 12.6988 49.1806 12.379 48.9689 11.9133C48.5174 10.8832 47.6002 9.48618 46.4995 8.10328C45.6951 7.10138 45.554 6.7486 45.9915 6.7486C46.2032 6.7486 46.6829 7.27072 47.5155 8.41372L48.1223 9.24628L48.6021 8.62539C49.5334 7.41183 49.8297 5.69026 49.3499 4.32148C48.7855 2.76924 47.7028 1.68371 45.9774 1.31579C45.2767 1.16638 44.8465 1.16683 44.1429 1.30168C43.4986 1.42515 42.5519 2.08838 42.1991 2.28593C41.5782 2.65283 40.855 3.85581 40.855 3.85581C40.855 3.85581 40.4458 4.42025 40.2906 4.26503C40.2059 4.18036 40.2482 3.92636 40.4317 3.57358C40.6151 3.20669 40.6574 2.98091 40.5728 2.86802C40.3752 2.62813 37.3452 0.99069 35.0553 0.455004C32.884 -0.0529366 31.1606 -0.0953312 29.3544 0.130447ZM19.025 2.07779C19.6741 2.36002 19.9987 2.65635 19.6459 2.65635C19.533 2.65635 19.0814 2.52935 18.6158 2.36002C18.0654 2.17657 17.5997 2.0919 17.2187 2.14835C15.5818 2.36002 14.0437 3.95458 14.0437 5.43626C14.0437 5.61971 13.9732 5.76082 13.8885 5.76082C13.6909 5.76082 14.0155 4.2227 14.0155 4.2227L14.2413 3.81347C14.2413 3.81347 15.3843 2.43057 15.9346 2.23302C16.1745 2.14835 16.4709 2.00724 16.5837 1.95079C16.9789 1.72501 18.3759 1.79557 19.025 2.07779ZM46.115 2.1801C46.5383 2.29299 47.4071 2.66827 47.6989 2.99502C47.5309 2.84564 47.8773 3.13194 47.6989 2.99502C48.3733 3.59437 48.6574 4.18173 48.6867 5.08348C48.6917 5.2378 48.6867 5.46096 48.6867 5.46096C48.6867 5.46096 48.5879 5.2387 48.3904 4.67426C48.1928 4.10981 48.2986 4.31804 48.1928 4.10981C48.0139 3.7575 47.8353 3.60034 47.5437 3.33369C46.367 2.2576 44.8626 1.9649 43.522 2.62813C43.0987 2.8398 42.9717 2.85391 42.9152 2.7128C42.8306 2.48702 43.2151 2.38118 44.1041 2.12718C44.8379 1.91551 45.0143 1.86965 46.115 2.1801ZM22.7362 9.90951C23.0043 10.1917 23.3994 10.7844 23.6111 11.236C23.978 11.998 23.9921 12.1532 23.9921 14.0864C23.9921 15.7515 23.9498 16.2172 23.7522 16.6123C23.6111 16.8804 23.4982 17.1627 23.4982 17.2332C23.4982 17.5154 22.5104 18.5738 22.0024 18.8137C21.5227 19.0395 21.4521 19.0395 20.8594 18.8137C20.1398 18.5315 19.787 18.1928 19.3778 17.4026C18.9826 16.6547 18.5593 14.919 18.5593 14.1005C18.5593 13.3244 19.279 10.982 19.279 10.982L19.406 10.7562C19.406 10.7562 20.3232 9.52851 20.676 9.3874C20.7889 9.33095 21.1981 9.31684 21.565 9.34506C22.1294 9.3874 22.327 9.47206 22.7362 9.90951ZM42.0121 9.44384C43.6349 10.3187 44.4534 13.7195 43.6631 16.2878C43.4938 16.824 43.4041 17.0384 43.1692 17.4872C43.096 17.6271 43.0599 17.709 42.9717 17.84C42.7278 18.2023 42.2132 18.5526 42.1532 18.602C42.0933 18.6514 42.04 18.7146 41.9557 18.7713C41.7061 18.9392 41.2078 18.9548 41.2078 18.9548C41.2078 18.9548 40.7279 18.9222 40.474 18.7713C40.3793 18.715 40.2482 18.602 40.2482 18.602C40.2482 18.602 38.8654 17.2756 38.6819 16.2172C38.4984 15.1589 38.5267 14.0864 38.5267 14.0864C38.5267 14.0864 38.3799 12.7475 38.6325 11.9521C39.0681 10.5804 40.1353 9.30273 41.1796 9.28862C41.4759 9.28862 41.8569 9.35917 42.0121 9.44384Z" fill="#30282A"/>
<path id="Vector_2" d="M20.2742 10.2908C19.8865 10.582 19.6244 11.3501 19.6024 11.4343C19.5804 11.5185 19.087 12.626 19.0325 13.4376C18.9092 15.271 19.7945 17.7274 20.9657 17.7274C21.4596 17.7274 21.9905 17.1731 22.3627 16.5703C22.5418 16.2803 22.7014 15.766 22.7014 15.766C22.7014 15.766 22.8566 14.7923 22.8566 14.0021C22.8566 12.1535 22.532 11.1234 21.7418 10.446C21.0927 9.8957 20.662 9.99963 20.2742 10.2908ZM20.9163 11.0599C21.0227 11.1502 21.2758 11.5028 21.3068 11.7184C21.3628 12.1079 20.7117 12.224 20.5141 12.224C19.611 12.224 19.9591 10.7074 20.5 10.8129C20.6856 10.8491 20.81 10.9696 20.9163 11.0599Z" fill="#30282A"/>
<path id="Vector_3" d="M40.4411 10.2054C39.3122 10.9392 38.7055 13.2393 39.1429 15.1443C39.5239 16.8094 40.1589 17.6843 40.9774 17.6843C41.7535 17.6843 42.3603 16.9082 42.7554 15.3842C43.094 14.1001 43.094 13.7614 42.7271 12.3362C42.4308 11.1085 41.6653 10.1313 41.5066 10.0784C41.3478 10.0255 40.935 9.88083 40.4411 10.2054ZM42.0639 11.1226C42.5014 11.7858 41.6124 12.4773 41.062 11.927C40.7516 11.6165 40.7939 11.2637 41.1608 10.9533C41.4007 10.7698 41.8946 10.8545 42.0639 11.1226Z" fill="#30282A"/>
<path id="Vector_4" d="M28.4086 18.5139C28.3663 18.5421 27.7031 18.6691 26.927 18.782C23.7096 19.2194 22.0445 20.4612 22.496 22.0699C22.7783 23.1141 23.9636 24.0878 25.8827 24.8357C26.4895 25.0756 26.9552 25.1461 27.9994 25.1461C29.1989 25.1461 29.4105 25.1038 30.0455 24.751L30.7652 24.3559L31.4567 24.751C32.0917 25.1038 32.2892 25.1461 33.5028 25.1461C35.0268 25.1461 36.0287 24.878 37.341 24.116C39.4013 22.9307 39.8528 21.0398 38.3006 20.0379C38.0325 19.8544 37.6374 19.5722 37.6374 19.5722L37.2846 19.4311L36.7201 19.2335C36.7201 19.2335 32.7831 18.4433 30.5677 18.4433C29.4105 18.4433 28.4369 18.4715 28.4086 18.5139ZM32.2187 19.036C33.3758 19.4029 33.7286 20.3483 32.9807 21.0539C32.5291 21.4631 31.9364 21.6183 30.8217 21.6183C29.2271 21.6183 28.2816 21.1244 28.2816 20.2778C28.2816 19.7415 28.6344 19.4311 28.6344 19.4311C28.6344 19.4311 28.7777 19.3236 28.8743 19.2617C29.69 18.7396 30.7229 18.7537 31.3155 18.8243C31.5554 18.8525 31.9506 18.9513 32.2187 19.036Z" fill="#30282A"/>
<path id="Vector_5" d="M5.63321 19.8684C4.70187 20.0377 3.03675 20.8844 2.38763 21.5335C1.52685 22.366 0.920067 23.3962 0.327397 25.0754C0.0169505 25.9362 -0.0112719 26.2043 0.00283928 29.0971C0.00283928 31.8347 0.0310617 32.3427 0.313286 33.4151C0.48262 34.0925 0.623732 34.7416 0.623732 34.8686C0.623732 34.9956 0.680177 35.2072 0.750733 35.3484C0.821289 35.4754 1.04707 36.1245 1.25874 36.7877C1.45629 37.4509 1.75263 38.2976 1.90785 38.6927C2.07719 39.0737 2.27474 39.5817 2.35941 39.8216C2.55697 40.3155 4.26442 43.7022 4.67365 44.4219C4.84298 44.7041 5.05465 45.0851 5.16754 45.2685C5.26632 45.452 5.37921 45.6354 5.42154 45.6778C5.46387 45.7201 5.78843 46.1858 6.14121 46.7361C7.43944 48.7258 9.34445 51.548 9.55612 51.8161C9.6549 51.9431 9.88068 52.2536 11.0378 53.834C11.1648 54.0175 11.4188 54.342 11.6022 54.5396C11.7716 54.7513 11.9691 54.977 12.0256 55.0617C12.717 56.0213 14.2693 57.6582 15.2853 58.5048L15.9344 59.0552L16.4283 58.7871C16.6964 58.6318 17.0633 58.519 17.2467 58.519C17.5713 58.519 17.5572 58.519 17.1762 58.1379C16.7105 57.6723 15.9344 56.5152 15.3135 55.358C14.9607 54.6807 14.876 54.596 14.876 54.9065C14.876 55.104 14.8055 55.2734 14.7208 55.2734C14.622 55.2734 14.5938 55.0758 14.6362 54.7513C14.7067 54.2009 14.5092 53.072 14.2975 52.7898C14.2269 52.7051 14.1282 52.3241 14.0717 51.9572C14.0153 51.4633 13.9165 51.2658 13.7189 51.2093C13.4085 51.1388 13.3803 50.8989 13.6766 50.8989C13.9024 50.8989 13.9729 50.405 13.7613 50.278C13.6907 50.2357 13.5919 49.6853 13.5355 49.0644C13.3803 47.3711 13.1827 47.3852 12.8158 49.0927C12.7029 49.6571 12.5336 50.4615 12.4489 50.8566C12.3643 51.2658 12.2373 51.6045 12.1667 51.6045C12.0256 51.6045 12.0115 50.7013 12.1526 50.5602C12.209 50.5179 12.2655 50.3627 12.2796 50.2216C12.2937 50.0946 12.3784 49.516 12.463 48.9516C12.5477 48.373 12.59 47.865 12.5477 47.7944C12.5054 47.7239 12.2373 47.6392 11.9409 47.5828C11.6587 47.5404 11.2636 47.3993 11.066 47.2864C10.7979 47.1312 10.7838 47.0889 10.9955 47.1453C11.1507 47.1877 11.6305 47.23 12.0538 47.2582L12.8158 47.3005L12.9993 46.0446C13.098 45.3532 13.1686 44.7605 13.1404 44.7323C13.1121 44.7182 12.6465 44.6053 12.1103 44.4924C11.574 44.3936 11.0378 44.2666 10.9249 44.2102C10.6991 44.1114 10.4592 44.7323 10.2758 45.8894C10.2335 46.1999 10.1206 46.6797 10.0218 46.9478C9.9089 47.2159 9.79601 47.738 9.73957 48.1049C9.68312 48.4718 9.58434 48.8104 9.49968 48.8528C9.34445 48.9657 9.34445 48.4718 9.5279 47.6533C9.69724 46.8349 10.0782 44.5489 10.0782 44.2666C10.0782 44.1255 9.7819 43.9562 9.21745 43.7869C8.58245 43.6034 8.399 43.4905 8.51189 43.3776C8.62478 43.2647 8.70945 43.2647 8.83645 43.3917C8.93523 43.4905 9.30212 43.5611 9.6549 43.5611H10.3181L10.4734 42.531C10.558 41.9806 10.6568 41.3879 10.6709 41.2468C10.7132 40.9505 10.5721 40.8941 8.97756 40.5695C8.31434 40.4284 8.21556 40.4284 8.03211 40.6824C7.91922 40.8235 7.82045 41.0916 7.82045 41.2609C7.82045 41.6984 7.66522 42.023 7.51 41.9242C7.43944 41.8677 7.43944 41.7831 7.51 41.6843C7.59467 41.5855 7.66522 41.2468 7.70756 40.9223C7.74989 40.4143 7.70756 40.3155 7.42533 40.1885C7.24189 40.1038 6.98788 40.0333 6.84677 40.0333C6.71977 40.0333 6.47988 39.9345 6.32466 39.8075C6.07066 39.6099 6.09888 39.5958 6.62099 39.6805C6.93144 39.7369 7.32655 39.8075 7.49589 39.8498C7.764 39.9063 7.80633 39.8498 7.891 39.2289C7.93333 38.862 8.03211 38.4105 8.11678 38.227C8.28611 37.8178 8.28611 37.2534 8.11678 37.1546C8.04622 37.0981 7.55233 36.9853 7.01611 36.8724C6.49399 36.7736 5.97188 36.6607 5.85899 36.6325C5.71788 36.5901 5.57676 36.9429 5.33687 37.846C4.81476 39.9063 4.70187 40.1179 4.80065 38.9749C4.84298 38.4387 4.94176 37.846 5.01232 37.6626C5.08287 37.4791 5.13932 37.1123 5.13932 36.8441C5.13932 36.4631 5.08287 36.3644 4.8712 36.3644C4.73009 36.3644 4.41965 36.2656 4.20798 36.1386C3.79875 35.9269 3.81286 35.9269 4.51842 36.0116L5.25221 36.1104L5.35098 35.3484C5.40743 34.9391 5.52032 34.5299 5.59088 34.4311C5.66143 34.3465 5.70376 34.0642 5.67554 33.8102C5.63321 33.3728 5.59088 33.3446 4.78654 33.1611C3.07908 32.766 3.20608 32.766 3.09319 33.2458C2.96619 33.8526 2.69808 33.8102 2.76863 33.1893C2.81097 32.8083 2.76863 32.6954 2.5993 32.6954C2.48641 32.6954 2.26063 32.5826 2.10541 32.4697C1.8373 32.258 1.85141 32.258 2.35941 32.3427C2.82508 32.4414 2.88152 32.4132 2.88152 32.131C2.88152 31.9617 2.93797 31.7218 3.00853 31.5948C3.06497 31.4678 3.16375 30.9598 3.20608 30.4941C3.29075 29.6474 3.29075 29.6192 2.90975 29.4781C2.69808 29.3934 2.31708 29.2805 2.06307 29.2382C1.82318 29.1818 1.61152 29.083 1.61152 29.0124C1.61152 28.8431 1.79496 28.8431 1.9643 29.0124C2.04896 29.083 2.38763 29.1676 2.74041 29.1959L3.37542 29.2382L3.53064 28.6032C3.61531 28.2504 3.7282 27.6436 3.78464 27.2485C3.86931 26.5853 3.84109 26.5147 3.53064 26.3736C3.34719 26.3031 2.89564 26.1761 2.51463 26.1196C2.13363 26.0632 1.73852 25.9362 1.62563 25.8233C1.45629 25.6398 1.49863 25.6257 1.97841 25.7104C2.27474 25.7527 2.82508 25.8656 3.19197 25.9362C3.55886 26.0208 3.91164 26.0491 3.9822 26.0067C4.05275 25.9644 4.19387 25.4564 4.27853 24.8637C4.37731 24.2852 4.51842 23.7772 4.58898 23.7348C4.78654 23.6078 4.7442 23.3821 4.50431 23.3821C4.39142 23.3821 4.17975 23.3256 4.03864 23.2551C3.91164 23.1704 3.55886 23.0716 3.27664 23.0293C2.9803 22.9869 2.74041 22.8741 2.74041 22.7894C2.74041 22.6624 3.67175 22.6906 4.64542 22.8599C4.71598 22.8741 4.80065 22.7188 4.82887 22.493C4.89943 21.9568 5.13932 22.0133 5.13932 22.5777V23.0434L6.23999 23.2127C6.83266 23.2974 7.45355 23.3821 7.60878 23.4103C7.79222 23.4385 7.891 23.3538 7.93333 23.1704C7.96156 23.0152 8.03211 22.7612 8.10267 22.6059C8.17323 22.4507 8.25789 22.1967 8.30023 22.0415C8.34256 21.8863 8.34256 22.1826 8.31434 22.6906L8.25789 23.6361L8.92112 23.7348C9.28801 23.7913 9.68312 23.8759 9.79601 23.9465C9.9089 24.0029 10.2476 24.0876 10.5439 24.1441C10.9955 24.2287 11.066 24.2005 11.066 23.9747C11.066 23.8195 11.1648 23.5091 11.2777 23.2974C11.4894 22.9023 11.4894 22.9023 11.4047 23.6219C11.32 24.3134 11.3341 24.3698 11.6022 24.3698C11.7716 24.3698 11.9409 24.4263 11.9832 24.511C12.0256 24.5815 12.2231 24.6521 12.4207 24.6521C12.6183 24.6521 12.7311 24.7085 12.6888 24.7932C12.5759 24.9766 11.828 24.9766 11.4752 24.7932C11.2354 24.6662 11.2071 24.6944 11.2071 25.0472C11.2071 25.273 11.1507 25.6398 11.0801 25.8656C11.0096 26.0914 10.9108 26.5147 10.8826 26.797C10.7979 27.3473 10.7697 27.3191 11.7716 27.5449C13.4931 27.94 13.5637 27.94 13.6766 27.5872C13.9447 26.797 14.0153 26.7123 13.9447 27.2909C13.8742 27.7847 13.9165 27.8976 14.1564 28.0388C14.5515 28.2363 14.6785 28.1516 14.876 27.5025C15.0736 26.8957 15.6945 25.273 15.8638 24.9484C16.5976 23.5373 16.6823 23.0998 16.2448 23.0998C16.1319 23.0998 15.9344 22.9728 15.7933 22.8176C15.6522 22.6624 15.4687 22.5354 15.3982 22.5354C15.3135 22.5354 15.1442 22.4507 15.0313 22.3378C14.7208 22.0697 12.336 20.842 12.1103 20.842C12.0115 20.842 11.9127 20.7856 11.8845 20.7291C11.8421 20.6304 10.9531 20.334 9.6549 19.9954C8.8929 19.7978 6.42344 19.7131 5.63321 19.8684Z" fill="#30282A"/>
<path id="Vector_6" d="M17.3735 23.3401C16.0471 25.8378 15.6096 26.9667 14.65 30.3675C14.3255 31.5528 14.015 33.5284 13.8739 35.5181C13.7046 37.7053 13.8175 46.6659 14.0292 48.0771C14.1138 48.5851 14.2408 49.4741 14.3255 50.0526C14.5936 51.9859 15.2286 53.8909 16.1741 55.6407C16.922 57.0236 17.9662 58.2371 18.4036 58.2371C18.8552 58.2371 20.4215 58.6746 21.0565 58.9709C21.875 59.3519 22.5268 60.2038 23.5683 60.8477C23.9945 61.1112 24.2307 61.2674 24.6831 61.4827C26.8794 62.528 28.4258 62.8549 30.9658 62.8549C33.534 62.8407 36.6635 61.7085 36.9599 61.4827C37.0445 61.4263 38.1706 60.965 38.6362 60.8662C39.4688 60.6969 39.4885 60.5821 39.4885 60.5821C39.4885 60.5821 42.0399 58.6746 42.7172 58.5194C43.1688 58.4206 43.4933 58.1948 44.0437 57.6021C44.4529 57.1788 44.7916 56.7272 44.7916 56.7272L44.9891 56.4168C44.9891 56.4168 46.1745 54.3424 46.3579 53.7074C46.4567 53.3688 46.5837 53.016 46.6401 52.9454C46.6966 52.8608 46.8095 52.3951 46.8941 51.8871C46.9929 51.3791 47.1199 50.8429 47.1905 50.6876C47.3175 50.3913 47.5574 48.3734 47.7549 45.7487C47.9243 43.7167 47.9101 36.4494 47.7549 35.0948C47.3457 31.6657 46.4849 28.1662 45.483 25.9225C44.34 23.3401 44.7186 22.5666 43.7473 23.3119C43.6515 23.3855 43.6141 23.4458 43.5216 23.5236C43.2286 23.77 42.6749 24.0175 42.6749 24.0175C42.6749 24.0175 42.1659 24.3158 41.8423 24.5114C41.7153 24.5881 41.6455 24.6333 41.5178 24.7089C41.1188 24.945 40.9392 25.0758 40.4735 25.2734C40.022 25.485 39.5422 25.7108 39.4152 25.7814C39.2035 25.8943 37.8912 26.3317 36.3249 26.8256C35.9721 26.9385 35.4217 27.0655 35.1113 27.1219C34.6033 27.1925 34.5045 27.2772 34.4481 27.6158C34.307 28.2649 33.6014 28.6036 32.3314 28.6036C31.7387 28.6036 31.1743 28.4625 31.1743 28.4625C31.1743 28.4625 30.8568 28.4272 30.7686 28.4272C30.6805 28.4272 30.3276 28.4625 30.3276 28.4625C30.3276 28.4625 29.8055 28.6036 29.2693 28.6036C28.2391 28.6036 27.2937 27.9404 27.2937 27.9404L27.1526 27.7569C27.1526 27.7569 27.0115 27.6299 27.0115 27.4747C27.0115 27.3195 26.9268 27.1643 26.8421 27.136C26.7433 27.1078 26.1507 26.9385 25.5298 26.7691C24.415 26.4728 23.6812 26.2188 22.8487 25.8519C22.6229 25.7531 22.0302 25.485 21.5504 25.2734C21.0565 25.0617 20.6614 24.7795 20.6614 24.7795L20.4639 24.6525C20.4639 24.6525 19.6877 24.2715 18.9963 23.8058C18.2907 23.3401 17.684 22.9591 17.6557 22.9591C17.6134 22.9591 17.4864 23.1285 17.3735 23.3401ZM32.8253 31.1013C33.0772 31.1776 33.4603 31.3271 33.4603 31.3271C33.4603 31.3271 36.6353 32.7664 37.8489 33.9517C38.244 34.3469 38.5826 34.8125 38.5826 34.8125C38.5826 34.8125 39.1048 34.615 41.3908 32.9499C42.3644 32.2443 42.7596 32.0185 42.8724 32.1455C43.0559 32.329 42.9853 32.3995 40.1349 34.4456C36.72 36.9151 35.7322 37.6771 35.4923 38.0581C35.3794 38.2557 35.2101 38.4532 35.1395 38.5097C35.0548 38.5661 34.9843 39.1023 34.9843 39.7091C34.9843 40.6687 35.0407 40.8804 35.3653 41.3884C35.8874 42.1927 36.4942 42.6584 37.3832 42.9406C38.117 43.1805 38.1734 43.1805 39.0765 42.87C39.5987 42.7007 40.149 42.4185 40.2901 42.2491C40.5864 41.9105 42.5902 39.314 42.9853 38.7496C43.1264 38.5661 43.4933 38.0581 43.8038 37.6348C44.1283 37.2114 44.4952 36.7034 44.6222 36.52C44.7492 36.3365 44.9327 36.1249 45.0174 36.0261C45.102 35.9414 45.2714 35.7015 45.4125 35.4758C45.6665 35.0948 46.0616 34.9536 46.0616 35.25C46.0616 35.4052 45.4548 36.3365 44.9468 36.9292C44.7916 37.1268 44.6081 37.3384 44.5517 37.4231C44.2695 37.7759 42.1528 40.6828 42.0681 40.838C42.0117 40.9227 42.0681 41.727 42.1951 42.6019C42.5197 44.8879 42.5902 46.3132 42.4068 47.3715C42.3221 47.8795 42.1951 48.7967 42.1104 49.4035C42.0258 50.0244 41.9129 50.5889 41.8423 50.6735C41.7718 50.7582 41.673 51.0263 41.6307 51.2662C41.5742 51.5061 41.3767 52.0705 41.1791 52.5362C40.9957 52.9878 40.7275 53.6087 40.6147 53.8909C40.4877 54.1872 40.4171 54.4095 40.3466 54.4095C40.276 54.4095 40.0291 54.9386 39.9762 55.0445C39.9233 55.1503 39.9938 54.9916 39.8244 55.2314C39.641 55.4713 39.4011 55.81 39.2882 55.9935C38.9495 56.5156 36.9457 58.5194 36.7623 58.5194C36.6953 58.5899 36.6953 58.5899 36.6424 58.6428C36.5326 58.7526 36.3954 58.9286 34.9702 59.6341C34.434 59.8881 33.8977 60.1563 33.7566 60.2268C33.2063 60.4949 31.5553 60.6643 30.0595 60.5937C28.3379 60.5231 27.1667 60.1704 25.5298 59.239C23.78 58.2371 21.3388 55.3161 20.4639 53.1571C20.2522 52.6491 20.0264 52.1129 19.9417 51.9576C19.3773 50.7864 18.7423 46.9058 18.8693 45.3254C18.954 44.2106 19.208 42.2774 19.335 41.6988C19.4196 41.2614 19.2785 40.9368 18.5306 39.9631C18.2202 39.568 17.938 39.187 17.8815 39.1164C17.811 39.0318 17.6557 38.8201 17.5287 38.6226C17.4017 38.425 17.0772 37.9734 16.8232 37.6207C15.5249 35.8144 15.1581 35.2218 15.2286 35.0806C15.2851 35.0101 15.3838 34.9536 15.4403 34.9819C15.5108 35.0101 16.4845 36.2942 17.5993 37.8464C18.7282 39.3987 19.7019 40.7251 19.7724 40.8098C19.8289 40.8804 20.0687 41.219 20.2945 41.5577C20.732 42.1927 21.4799 42.7007 22.4112 42.997C22.8769 43.1523 23.0885 43.1381 23.7941 42.9124C24.9653 42.5596 25.7556 41.7694 26.0801 40.6122C26.3059 39.7938 26.3059 39.7373 26.0237 38.9189C25.8685 38.4391 25.6145 37.9311 25.4592 37.7759C25.2193 37.536 24.0199 36.6188 20.6332 34.0788C20.4921 33.98 19.9135 33.5425 19.335 33.1192C18.319 32.3713 18.1073 32.1032 18.3895 31.9197C18.4601 31.8774 19.4479 32.5406 20.5768 33.3873L22.6229 34.9254L23.1027 34.4033C24.5279 32.8793 26.1507 31.8492 27.9287 31.3271C28.3238 31.2142 28.8318 31.059 29.0576 31.0025C29.6079 30.8332 31.4167 30.6744 32.8253 31.1013Z" fill="#30282A"/>
<path id="Vector_7" d="M4.99839 23.8481C4.99839 24.0316 4.94194 24.3702 4.87138 24.596C4.80083 24.8218 4.71616 25.2734 4.67383 25.5838L4.60327 26.1765L5.47817 26.3317C5.94384 26.4305 6.53651 26.5292 6.7764 26.5716L7.21384 26.6562L7.36907 25.7531C7.46785 25.2734 7.58073 24.6948 7.62307 24.4831C7.70774 24.1303 7.6654 24.1021 7.17151 24.0175C6.86106 23.961 6.49417 23.8763 6.33895 23.8058C6.18373 23.7352 5.81683 23.6506 5.53461 23.5941C5.04072 23.5236 4.99839 23.5377 4.99839 23.8481Z" fill="#30282A"/>
<path id="Vector_8" d="M8.10278 24.5536C8.10278 24.7511 8.04633 25.0616 7.97578 25.245C7.91933 25.4285 7.82056 25.8377 7.76411 26.1623L7.67944 26.7549L8.34267 26.8396C8.72367 26.8819 9.1329 26.9807 9.2599 27.0654C9.40101 27.1359 9.68323 27.1924 9.90901 27.1924C10.29 27.1924 10.3182 27.1359 10.5581 26.1199C10.6851 25.5414 10.8262 24.9769 10.8686 24.8781C10.925 24.737 10.6569 24.6383 9.90901 24.5113C9.34457 24.4266 8.70956 24.3137 8.49789 24.2714C8.14511 24.2008 8.10278 24.2431 8.10278 24.5536Z" fill="#30282A"/>
<path id="Vector_9" d="M30.8499 26.2893C30.8251 26.321 31.0175 27.2652 30.663 27.6863C30.6065 27.7533 30.5042 27.845 30.5042 27.845L30.3455 27.9685C29.8622 28.0814 29.6046 28.025 28.9696 27.9685C27.8125 27.8697 27.5337 27.7568 27.4209 26.5151L27.3362 25.5696L27.3221 26.5151C27.2939 27.3476 27.3362 27.5028 27.6607 27.8556C27.9994 28.2225 28.0982 28.2507 29.1989 28.2507C29.9468 28.2507 30.6171 28.2084 30.7159 28.1096C30.857 27.9685 30.7793 27.9403 30.9345 28.0814C31.2309 28.3213 33.4146 28.2154 33.6016 28.0673C33.7321 28.0038 33.7851 27.9509 33.838 27.8979C33.9967 27.6334 34.2225 27.5452 34.2789 26.4868C34.3353 25.5696 34.3353 25.5696 34.2225 26.3034C34.0108 27.5875 33.8168 27.6051 33.3088 27.845C32.8149 28.0708 32.007 28.0779 31.372 27.8944C31.0333 27.7956 31.0122 26.2893 31.0122 26.2893L30.8781 24.864C30.8781 24.864 30.8746 26.2575 30.8499 26.2893Z" fill="#30282A"/>
<path id="Vector_10" d="M4.43405 27.2065C4.22238 27.9826 4.02482 29.2244 4.09538 29.295C4.18004 29.3796 5.43594 29.6054 5.97217 29.6336C6.43784 29.6619 6.48017 29.6336 6.6495 29.0551C6.73417 28.7164 6.83295 28.152 6.86117 27.7992L6.90351 27.1501L6.12739 26.9807C5.70405 26.8961 5.18194 26.7691 4.97027 26.7126C4.61749 26.6138 4.58927 26.6421 4.43405 27.2065Z" fill="#30282A"/>
<path id="Vector_11" d="M7.4395 28.1378C7.34072 28.5894 7.22783 29.1538 7.1855 29.3937L7.10083 29.8312L8.14506 30.0852C9.64085 30.4379 9.68318 30.4097 9.89485 29.2385C10.1488 27.7145 10.2053 27.8133 9.13284 27.6157C8.59662 27.531 8.04628 27.4323 7.89106 27.3899C7.63706 27.3335 7.58061 27.4182 7.4395 28.1378Z" fill="#30282A"/>
<path id="Vector_12" d="M10.5437 28.7021C10.445 29.069 10.3462 29.6193 10.2897 29.9015L10.2051 30.4236L10.953 30.6353C11.3622 30.7482 11.969 30.8752 12.2935 30.9175L12.8862 31.0022L12.9709 30.4801C13.0273 30.1837 13.1543 29.6475 13.2672 29.2806C13.3801 28.9137 13.4648 28.5892 13.4648 28.561C13.4648 28.4904 12.223 28.2223 11.3481 28.1094L10.699 28.0106L10.5437 28.7021Z" fill="#30282A"/>
<path id="Vector_13" d="M13.691 29.055C13.4652 30.2262 13.3523 31.0729 13.4088 31.1717C13.4511 31.2281 13.564 31.2845 13.6769 31.2845C13.8039 31.2845 13.9168 30.9459 14.0297 30.2968C14.1144 29.7605 14.2555 29.2808 14.326 29.2243C14.3966 29.182 14.453 29.0268 14.453 28.8715C14.453 28.6881 14.3542 28.6034 14.1144 28.6034C13.8462 28.6034 13.7616 28.7022 13.691 29.055Z" fill="#30282A"/>
<path id="Vector_14" d="M3.79936 30.0429C3.48892 31.3693 3.36192 32.4418 3.50303 32.4841C4.10981 32.6676 5.05526 32.8369 5.40804 32.8369C5.78904 32.8369 5.83138 32.7805 5.9866 32.1596C6.08538 31.7927 6.18416 31.2 6.22649 30.819C6.29705 30.1981 6.26882 30.1558 5.95838 30.1558C5.78904 30.1558 5.32337 30.057 4.94237 29.9441C4.02514 29.6619 3.88403 29.676 3.79936 30.0429Z" fill="#30282A"/>
<path id="Vector_15" d="M6.83296 30.819C6.83296 31.0307 6.74829 31.6092 6.64951 32.089L6.46606 32.9639L6.81884 33.0627C7.24218 33.1756 7.35507 33.2038 8.2723 33.3731L8.94964 33.5001L9.09075 32.978C9.27419 32.3148 9.52819 30.9601 9.48586 30.9319C9.45764 30.9178 9.0343 30.8331 8.5263 30.7343C8.0183 30.6497 7.43974 30.5368 7.22807 30.4944C6.87529 30.4239 6.83296 30.4521 6.83296 30.819Z" fill="#30282A"/>
<path id="Vector_16" d="M9.95107 31.6657C9.68296 32.7381 9.64062 33.486 9.82407 33.6412C9.92285 33.7259 10.3885 33.8388 10.8542 33.8811C11.3199 33.9376 11.8137 34.0081 11.9407 34.0505C12.2089 34.1351 12.3782 33.6271 12.5475 32.3007C12.6322 31.6092 12.6322 31.5669 12.3359 31.5669C12.1665 31.5669 11.9266 31.5104 11.7996 31.4399C11.6726 31.3834 11.2352 31.2847 10.826 31.2282L10.0922 31.1294L9.95107 31.6657Z" fill="#30282A"/>
<path id="Vector_17" d="M13.1124 32.0184C13.0419 32.3711 12.7596 34.1209 12.7596 34.2761C12.7596 34.3467 12.8866 34.389 13.0419 34.389C13.3664 34.389 13.4511 34.135 13.4934 32.7804C13.5216 32.1171 13.4793 31.7926 13.3664 31.7502C13.2676 31.7079 13.1548 31.8349 13.1124 32.0184Z" fill="#30282A"/>
<path id="Vector_18" d="M6.19787 34.1349C6.14143 34.4736 6.01443 35.0522 5.90154 35.4332C5.78865 35.8142 5.70398 36.1528 5.70398 36.1669C5.70398 36.2093 6.97399 36.4492 7.76421 36.5621L8.32866 36.6467L8.56855 35.6166C8.94956 33.9797 8.97778 34.0362 7.72188 33.8245C7.12921 33.7398 6.56476 33.6269 6.46598 33.5846C6.35309 33.5423 6.26843 33.7398 6.19787 34.1349Z" fill="#30282A"/>
<path id="Vector_19" d="M9.20306 35.4756C9.03373 36.3788 9.0055 36.7315 9.11839 36.8162C9.21717 36.8585 9.66873 36.9573 10.1344 36.9997C10.6142 37.0561 11.094 37.1549 11.221 37.2254C11.4044 37.3101 11.475 37.2113 11.6161 36.6751C11.9406 35.4051 12.0253 34.7842 11.856 34.756C11.7713 34.7278 11.475 34.6431 11.2069 34.5584C10.9387 34.4879 10.4307 34.375 10.078 34.3326L9.42884 34.2339L9.20306 35.4756Z" fill="#30282A"/>
<path id="Vector_20" d="M12.5476 34.9817C12.4629 35.2498 12.1948 36.9855 12.1948 37.2536C12.1948 37.423 12.3218 37.4935 12.604 37.4935H13.0133L13.1121 36.28C13.1826 35.3204 13.1685 35.0382 13.0274 34.9394C12.7593 34.7701 12.6182 34.7842 12.5476 34.9817Z" fill="#30282A"/>
<path id="Vector_21" d="M8.73808 37.7333C8.68163 37.9449 8.55463 38.4529 8.44174 38.8622C8.13129 39.9911 8.11718 39.977 9.34486 40.1463C9.93753 40.231 10.5443 40.3438 10.6572 40.3862C10.8406 40.4567 10.9112 40.3015 11.0523 39.5818C11.137 39.088 11.2499 38.5235 11.3063 38.3118C11.3486 38.0437 11.3204 37.9026 11.1934 37.8744C11.0805 37.8321 10.7701 37.7474 10.502 37.6627C10.2339 37.5781 9.73997 37.4793 9.41541 37.4228C8.85097 37.3382 8.82274 37.3523 8.73808 37.7333Z" fill="#30282A"/>
<path id="Vector_22" d="M11.7293 39.2008C11.5882 39.9205 11.5035 40.5131 11.5176 40.5414C11.5459 40.5555 11.8986 40.626 12.3079 40.6825L13.0417 40.7812V39.483C13.0417 38.7775 12.9993 38.1989 12.9429 38.1848C12.7312 38.1707 12.4066 38.086 12.195 38.0013C12.0115 37.9308 11.9269 38.1566 11.7293 39.2008Z" fill="#30282A"/>
<path id="Vector_23" d="M11.2635 41.5718C11.207 41.8541 11.1224 42.1786 11.0659 42.2915C11.0095 42.4044 10.9248 42.7572 10.8825 43.0817L10.7837 43.6462L11.8138 43.8861C12.3924 44.0131 12.9145 44.126 12.985 44.126C13.0556 44.126 13.0979 43.5615 13.0697 42.8136L13.0274 41.5013L12.1948 41.2755L11.3481 41.0497L11.2635 41.5718Z" fill="#30282A"/>
<path id="Vector_24" d="M17.5573 58.9002C16.5837 59.0977 15.0986 59.7779 14.1283 61.0168C13.601 61.6902 13.0276 62.7102 13.1264 62.9642C13.1829 63.0771 13.3804 63.2182 13.5921 63.2605C13.7897 63.317 13.5215 63.1813 13.5921 63.2519C14.0154 63.5764 19.293 63.9096 21.6496 63.6556C22.7079 63.5428 23.7522 63.1618 23.8509 62.8513C24.1614 61.8917 22.4822 60.1137 20.436 59.2529C19.7164 58.9566 18.2065 58.7591 17.5573 58.9002Z" fill="#30282A"/>
<path id="Vector_25" d="M43.0283 58.9426C41.2079 59.3518 38.7244 61.5814 38.7244 62.8232C38.7244 62.9502 39.0066 63.1618 39.4017 63.3312C40.7423 63.9239 47.177 63.9239 48.6728 63.3453C49.3078 63.0913 49.3783 63.0207 49.4207 62.5833C49.5053 61.6661 47.7979 60.0151 45.9634 59.253C45.1167 58.8862 43.8467 58.7592 43.0283 58.9426Z" fill="#30282A"/>
</g>
<path id="Beaver" d="M68.5602 21.5528H76.3362C78.4482 21.5528 80.0696 22.0861 81.2002 23.1528C82.3522 24.1981 82.9282 25.6275 82.9282 27.4408C82.9282 28.7208 82.6082 29.7448 81.9682 30.5128C81.3496 31.2808 80.4642 31.8355 79.3122 32.1768V32.3368C80.6562 32.6568 81.7122 33.2435 82.4802 34.0968C83.2696 34.9288 83.6642 36.1128 83.6642 37.6488C83.6642 38.5875 83.5042 39.4408 83.1842 40.2088C82.8856 40.9555 82.4482 41.6061 81.8722 42.1608C81.3176 42.7155 80.6349 43.1421 79.8242 43.4408C79.0349 43.7395 78.1389 43.8888 77.1362 43.8888H68.5602V21.5528ZM75.8562 40.8488C77.0296 40.8488 77.9042 40.6355 78.4802 40.2088C79.0776 39.7608 79.3762 39.0035 79.3762 37.9368V36.8808C79.3762 35.8355 79.0776 35.0995 78.4802 34.6728C77.9042 34.2248 77.0296 34.0008 75.8562 34.0008H72.6562V40.8488H75.8562ZM75.3122 31.0888C76.4429 31.0888 77.2749 30.8861 77.8082 30.4808C78.3629 30.0755 78.6402 29.3715 78.6402 28.3688V27.3128C78.6402 26.3101 78.3629 25.6061 77.8082 25.2008C77.2749 24.7955 76.4429 24.5928 75.3122 24.5928H72.6562V31.0888H75.3122ZM95.1717 44.2728C93.8491 44.2728 92.6757 44.0701 91.6517 43.6648C90.6277 43.2595 89.7637 42.6835 89.0597 41.9368C88.3771 41.1901 87.8544 40.2941 87.4917 39.2488C87.1291 38.1821 86.9477 36.9875 86.9477 35.6648C86.9477 34.3208 87.1291 33.1155 87.4917 32.0488C87.8757 30.9821 88.4091 30.0755 89.0917 29.3288C89.7744 28.5821 90.5957 28.0061 91.5557 27.6008C92.5371 27.1955 93.6357 26.9928 94.8517 26.9928C96.0464 26.9928 97.1237 27.1955 98.0837 27.6008C99.0437 27.9848 99.8544 28.5395 100.516 29.2648C101.198 29.9901 101.721 30.8648 102.084 31.8888C102.446 32.9128 102.628 34.0435 102.628 35.2808V36.6248H91.0437V37.0408C91.0437 38.2355 91.4171 39.2061 92.1637 39.9528C92.9104 40.6781 93.9557 41.0408 95.2997 41.0408C96.3237 41.0408 97.1984 40.8381 97.9237 40.4328C98.6704 40.0061 99.2891 39.4515 99.7797 38.7688L102.116 41.1048C101.518 41.9795 100.644 42.7261 99.4917 43.3448C98.3611 43.9635 96.9211 44.2728 95.1717 44.2728ZM94.8837 30.0008C93.7317 30.0008 92.8037 30.3635 92.0997 31.0888C91.3957 31.8141 91.0437 32.7741 91.0437 33.9688V34.1928H98.5317V33.9048C98.5317 32.7101 98.2011 31.7608 97.5397 31.0568C96.8997 30.3528 96.0144 30.0008 94.8837 30.0008ZM120.055 43.8888C119.053 43.8888 118.274 43.6435 117.719 43.1528C117.186 42.6408 116.866 41.9368 116.759 41.0408H116.599C116.301 42.0648 115.714 42.8648 114.839 43.4408C113.965 43.9955 112.887 44.2728 111.607 44.2728C109.943 44.2728 108.621 43.8355 107.639 42.9608C106.658 42.0861 106.167 40.8701 106.167 39.3128C106.167 35.9848 108.61 34.3208 113.495 34.3208H116.407V33.2328C116.407 32.1875 116.151 31.3981 115.639 30.8648C115.127 30.3315 114.295 30.0648 113.143 30.0648C112.098 30.0648 111.255 30.2675 110.615 30.6728C109.975 31.0781 109.431 31.6008 108.983 32.2408L106.647 30.2568C107.159 29.3395 107.981 28.5715 109.111 27.9528C110.263 27.3128 111.746 26.9928 113.559 26.9928C115.735 26.9928 117.431 27.5048 118.647 28.5288C119.885 29.5315 120.503 31.0355 120.503 33.0408V40.8168H122.455V43.8888H120.055ZM112.983 41.4568C113.965 41.4568 114.775 41.2328 115.415 40.7848C116.077 40.3155 116.407 39.6861 116.407 38.8968V36.6888H113.591C111.351 36.6888 110.231 37.3928 110.231 38.8008V39.4408C110.231 40.1021 110.477 40.6035 110.967 40.9448C111.458 41.2861 112.13 41.4568 112.983 41.4568ZM130.699 43.8888L124.779 27.3768H129.067L131.275 34.3848L133.131 40.4648H133.355L135.211 34.3848L137.419 27.3768H141.547L135.627 43.8888H130.699ZM152.734 44.2728C151.412 44.2728 150.238 44.0701 149.214 43.6648C148.19 43.2595 147.326 42.6835 146.622 41.9368C145.94 41.1901 145.417 40.2941 145.054 39.2488C144.692 38.1821 144.51 36.9875 144.51 35.6648C144.51 34.3208 144.692 33.1155 145.054 32.0488C145.438 30.9821 145.972 30.0755 146.654 29.3288C147.337 28.5821 148.158 28.0061 149.118 27.6008C150.1 27.1955 151.198 26.9928 152.414 26.9928C153.609 26.9928 154.686 27.1955 155.646 27.6008C156.606 27.9848 157.417 28.5395 158.078 29.2648C158.761 29.9901 159.284 30.8648 159.646 31.8888C160.009 32.9128 160.19 34.0435 160.19 35.2808V36.6248H148.606V37.0408C148.606 38.2355 148.98 39.2061 149.726 39.9528C150.473 40.6781 151.518 41.0408 152.862 41.0408C153.886 41.0408 154.761 40.8381 155.486 40.4328C156.233 40.0061 156.852 39.4515 157.342 38.7688L159.678 41.1048C159.081 41.9795 158.206 42.7261 157.054 43.3448C155.924 43.9635 154.484 44.2728 152.734 44.2728ZM152.446 30.0008C151.294 30.0008 150.366 30.3635 149.662 31.0888C148.958 31.8141 148.606 32.7741 148.606 33.9688V34.1928H156.094V33.9048C156.094 32.7101 155.764 31.7608 155.102 31.0568C154.462 30.3528 153.577 30.0008 152.446 30.0008ZM164.338 40.6568H168.434V30.6088H164.338V27.3768H172.53V31.8888H172.786C172.935 31.3128 173.138 30.7581 173.394 30.2248C173.671 29.6701 174.012 29.1901 174.418 28.7848C174.844 28.3581 175.356 28.0168 175.954 27.7608C176.551 27.5048 177.266 27.3768 178.098 27.3768H179.89V31.2168H176.498C175.26 31.2168 174.29 31.5795 173.586 32.3048C172.882 33.0301 172.53 33.9581 172.53 35.0888V40.6568H178.258V43.8888H164.338V40.6568Z" fill="black"/>
</g>
</svg>
